<svg width="24" height="25" viewBox="0 0 24 25" fill="none" xmlns="http://www.w3.org/2000/svg">
	<path fill-rule="evenodd" clip-rule="evenodd"
		  d="M12 0.25C5.37258 0.25 0 5.62258 0 12.25C0 18.8774 5.37258 24.25 12 24.25C18.6274 24.25 24 18.8774 24 12.25C24 5.62258 18.6274 0.25 12 0.25Z"
		  fill="#D0D0D1"/>
	<path fill-rule="evenodd" clip-rule="evenodd"
		  d="M7.50144 9.47028C7.50144 6.9891 9.50442 4.97168 12.0001 4.97168C14.4829 4.97168 16.4987 6.98744 16.4987 9.47028V9.47501H16.4987C16.485 11.8955 14.5811 13.8748 12.1626 13.9573C12.1134 13.9589 12.0643 13.9563 12.0156 13.9493C12.0204 13.95 12.0214 13.95 12.0183 13.9498L12.0144 13.9496L12.0043 13.9494C11.9905 13.9494 11.9779 13.9503 11.97 13.9513C11.9261 13.9568 11.8818 13.9588 11.8376 13.9573C9.42328 13.875 7.50144 11.8987 7.50144 9.47028ZM12.0085 15.2471C14.1471 15.2471 16.3283 15.7846 18.0136 16.9122L18.0154 16.9134C19.3579 17.8168 20.212 19.043 20.3563 20.3995C20.3844 20.6639 20.2853 20.9259 20.0892 21.1055C17.9541 23.0607 15.12 24.2499 12.0001 24.2499C8.88022 24.2499 6.04613 23.0607 3.91097 21.1055C3.71487 20.9259 3.61574 20.6639 3.64386 20.3995C3.78817 19.043 4.64229 17.8168 5.9848 16.9135L5.98896 16.9107L5.98897 16.9107C7.6841 15.7847 9.86956 15.2471 12.0085 15.2471Z"
		  fill="#A1A1A2"/>
</svg>
