<?xml version="1.0" standalone="no"?>
<!DOCTYPE svg PUBLIC "-//W3C//DTD SVG 1.1//EN" "http://www.w3.org/Graphics/SVG/1.1/DTD/svg11.dtd" >
<svg xmlns="http://www.w3.org/2000/svg">
<metadata>Generated by IcoMoon</metadata>
<defs>
<font id="icomoon" horiz-adv-x="1024">
<font-face units-per-em="1024" ascent="960" descent="-64" />
<missing-glyph horiz-adv-x="1024" />
<glyph unicode="&#x20;" horiz-adv-x="512" d="" />
<glyph unicode="&#xe900;" glyph-name="achievement" d="M610.133 780.8l149.333-85.333v29.867c0 93.867-51.2 149.333-149.333 149.333h-196.267c-98.133 0-149.333-51.2-149.333-149.333v-34.133l149.333 89.6c59.733 34.133 136.533 34.133 196.267 0zM759.467 618.667l-4.267 4.267-179.2 102.4c-38.4 21.333-93.867 21.333-128 0l-179.2-102.4-8.533-4.267c-76.8-51.2-81.067-59.733-81.067-140.8v-192c0-81.067 4.267-89.6 81.067-140.8l183.467-106.667c17.067-12.8 42.667-17.067 64-17.067s46.933 4.267 64 17.067l187.733 106.667c76.8 51.2 81.067 59.733 81.067 140.8v192c4.267 81.067-4.267 89.6-81.067 140.8zM631.467 384l-25.6-34.133c-4.267-4.267-8.533-12.8-8.533-21.333l4.267-42.667c0-25.6-17.067-38.4-38.4-29.867l-38.4 21.333c-4.267 0-17.067 0-21.333 0l-38.4-12.8c-21.333-8.533-42.667 4.267-38.4 29.867l4.267 42.667c0 8.533-4.267 17.067-8.533 21.333l-25.6 29.867c-17.067 21.333-8.533 42.667 17.067 46.933l38.4 8.533c8.533 0 12.8 8.533 17.067 12.8l21.333 34.133c12.8 21.333 34.133 21.333 51.2 0l21.333-34.133c4.267-4.267 12.8-12.8 17.067-12.8l38.4-8.533c21.333-8.533 29.867-29.867 12.8-51.2z" />
<glyph unicode="&#xe901;" glyph-name="add" d="M810.667 482.133h-264.533v264.533c0 17.067-12.8 34.133-34.133 34.133s-34.133-17.067-34.133-34.133v-264.533h-264.533c-17.067 0-34.133-12.8-34.133-34.133s12.8-34.133 34.133-34.133h264.533v-264.533c0-17.067 12.8-34.133 34.133-34.133s34.133 12.8 34.133 34.133v264.533h264.533c17.067 0 34.133 12.8 34.133 34.133s-17.067 34.133-34.133 34.133z" />
<glyph unicode="&#xe902;" glyph-name="add-2" d="M812.8 499.2h-249.6v249.6c0 25.6-19.2 51.2-51.2 51.2s-51.2-25.6-51.2-51.2v-249.6h-249.6c-25.6 0-44.8-25.6-44.8-51.2s19.2-51.2 51.2-51.2h249.6v-249.6c0-25.6 19.2-51.2 51.2-51.2s51.2 19.2 51.2 51.2v249.6h249.6c25.6 0 51.2 19.2 51.2 51.2s-32 51.2-57.6 51.2z" />
<glyph unicode="&#xe903;" glyph-name="add-circle-2" d="M608 505.6h-64v64c0 25.6-19.2 51.2-51.2 51.2s-44.8-25.6-44.8-51.2v-57.6h-57.6c-25.6 0-51.2-19.2-51.2-51.2s19.2-51.2 51.2-51.2h57.6v-57.6c0-25.6 19.2-51.2 51.2-51.2s51.2 19.2 51.2 51.2v57.6h57.6c25.6 0 51.2 19.2 51.2 51.2s-25.6 44.8-51.2 44.8zM972.8 57.6l-128 128c64 76.8 102.4 179.2 102.4 281.6 0 249.6-204.8 454.4-454.4 454.4s-454.4-204.8-454.4-454.4 204.8-454.4 454.4-454.4c108.8 0 204.8 38.4 281.6 102.4l128-128c6.4-6.4 19.2-12.8 32-12.8s25.6 6.4 32 12.8c25.6 19.2 25.6 51.2 6.4 70.4zM134.4 467.2c0 198.4 160 358.4 358.4 358.4s358.4-160 358.4-358.4-160-358.4-358.4-358.4c-198.4 6.4-358.4 166.4-358.4 358.4z" />
<glyph unicode="&#xe904;" glyph-name="add-circle-2-1" d="M512 908.8c-251.733 0-460.8-209.067-460.8-460.8s209.067-460.8 460.8-460.8 460.8 209.067 460.8 460.8-209.067 460.8-460.8 460.8zM512 55.467c-217.6 0-392.533 174.933-392.533 392.533s174.933 392.533 392.533 392.533 392.533-174.933 392.533-392.533-174.933-392.533-392.533-392.533zM682.667 482.133h-136.533v136.533c0 17.067-12.8 34.133-34.133 34.133s-34.133-17.067-34.133-34.133v-136.533h-136.533c-17.067 0-34.133-12.8-34.133-34.133s12.8-34.133 34.133-34.133h136.533v-136.533c0-17.067 12.8-34.133 34.133-34.133s34.133 12.8 34.133 34.133v136.533h136.533c17.067 0 34.133 12.8 34.133 34.133s-17.067 34.133-34.133 34.133z" />
<glyph unicode="&#xe905;" glyph-name="add-circle-2-2" d="M512 921.6c-262.4 0-473.6-211.2-473.6-473.6s211.2-473.6 473.6-473.6c262.4 0 473.6 211.2 473.6 473.6s-211.2 473.6-473.6 473.6zM512 70.4c-211.2 0-377.6 172.8-377.6 377.6 0 211.2 172.8 377.6 377.6 377.6 211.2 0 377.6-172.8 377.6-377.6 0-211.2-166.4-377.6-377.6-377.6zM684.8 499.2h-121.6v121.6c0 25.6-19.2 51.2-51.2 51.2s-51.2-25.6-51.2-51.2v-121.6h-121.6c-25.6 0-44.8-25.6-44.8-51.2s19.2-51.2 51.2-51.2h121.6v-121.6c0-25.6 19.2-51.2 51.2-51.2s51.2 19.2 51.2 51.2v121.6h121.6c25.6 0 51.2 19.2 51.2 51.2s-32 51.2-57.6 51.2z" />
<glyph unicode="&#xe906;" glyph-name="add-circle-fill" d="M512.010 874.664c-235.093 0-426.666-191.574-426.666-426.667 0-235.095 191.573-426.666 426.666-426.666s426.665 191.571 426.665 426.666c0 235.093-191.571 426.667-426.665 426.667zM682.675 415.997h-138.665v-138.666c0-17.491-14.506-32-32-32s-32 14.509-32 32v138.666h-138.666c-17.494 0-32 14.507-32 32s14.506 32 32 32h138.666v138.667c0 17.493 14.507 32 32 32s32-14.507 32-32v-138.667h138.665c17.498 0 32-14.507 32-32s-14.502-32-32-32z" />
<glyph unicode="&#xe907;" glyph-name="add-photo" d="M746.667 738.133h34.133v-34.133c0-17.067 12.8-34.133 34.133-34.133s34.133 12.8 34.133 34.133v34.133h34.133c17.067 0 34.133 12.8 34.133 34.133s-12.8 34.133-34.133 34.133h-34.133v25.6c0 17.067-12.8 34.133-34.133 34.133s-34.133-17.067-34.133-34.133v-34.133h-34.133c-17.067 0-34.133-12.8-34.133-34.133s17.067-25.6 34.133-25.6zM930.133 234.667v298.667c0 17.067-12.8 34.133-34.133 34.133s-34.133-12.8-34.133-34.133v-298.667c0-4.267 0-4.267 0-8.533l-128 128c-51.2 51.2-136.533 51.2-192 0l-29.867-29.867-162.133 162.133c-51.2 51.2-136.533 51.2-187.733-4.267v0 179.2c0 76.8 64 140.8 140.8 140.8h256c17.067 0 34.133 12.8 34.133 34.133s-21.333 29.867-38.4 29.867h-256c-110.933 0-204.8-93.867-204.8-204.8v-426.667c0-110.933 89.6-204.8 204.8-204.8h426.667c81.067 0 149.333 46.933 183.467 119.467 0 0 0 4.267 4.267 4.267 8.533 25.6 17.067 51.2 17.067 81.067zM157.867 234.667v157.867l46.933 46.933c25.6 25.6 72.533 25.6 102.4 0l162.133-162.133-179.2-179.2c-72.533 4.267-132.267 64-132.267 136.533zM725.333 93.867h-349.867l157.867 157.867c0 0 0 0 0 0s0 0 0 0l55.467 55.467c25.6 25.6 72.533 25.6 102.4 0l149.333-149.333c-25.6-38.4-68.267-64-115.2-64z" />
<glyph unicode="&#xe908;" glyph-name="apple" d="M844.8 576c-42.667 55.467-102.4 85.333-157.867 85.333-42.667 0-68.267-8.533-93.867-21.333-21.333-8.533-42.667-17.067-64-17.067-25.6 0-46.933 8.533-72.533 17.067-29.867 12.8-55.467 21.333-89.6 21.333-64 0-132.267-38.4-174.933-106.667-59.733-93.867-51.2-268.8 46.933-418.133 34.133-55.467 81.067-115.2 145.067-115.2 25.6 0 42.667 8.533 59.733 17.067 21.333 8.533 42.667 21.333 85.333 21.333 38.4 0 64-8.533 81.067-21.333 17.067-8.533 34.133-17.067 59.733-17.067 64 0 110.933 68.267 145.067 119.467 25.6 38.4 34.133 59.733 55.467 102.4-145.067 55.467-166.4 256-25.6 332.8zM640 746.667c25.6 34.133 42.667 81.067 38.4 128-42.667-4.267-89.6-29.867-119.467-64-25.6-29.867-46.933-76.8-38.4-123.733 42.667 0 89.6 25.6 119.467 59.733z" />
<glyph unicode="&#xe909;" glyph-name="book" d="M934.4 849.067c-25.6 21.333-55.467 34.133-85.333 29.867 0 0-4.267 0-4.267 0-93.867-8.533-234.667-55.467-315.733-106.667l-8.533-4.267c-4.267 0-8.533 0-12.8 0l-8.533 4.267c-85.333 51.2-226.133 98.133-320 106.667-34.133 0-64-8.533-89.6-29.867s-38.4-51.2-38.4-85.333v-516.267c0-55.467 46.933-110.933 102.4-115.2h12.8c89.6-12.8 230.4-59.733 307.2-102.4 8.533-4.267 25.6-8.533 38.4-8.533s25.6 4.267 34.133 8.533c76.8 42.667 217.6 89.6 307.2 102.4h12.8c55.467 8.533 102.4 59.733 102.4 115.2v512c4.267 34.133-12.8 64-34.133 89.6zM174.933 192h-12.8c-25.6 4.267-46.933 25.6-46.933 51.2v516.267c0 17.067 4.267 29.867 17.067 38.4 12.8 12.8 25.6 17.067 38.4 17.067 0 0 4.267 0 4.267 0 85.333-8.533 213.333-51.2 285.867-93.867l8.533-4.267c4.267 0 4.267 0 8.533-4.267v-614.4c-85.333 38.4-213.333 81.067-302.933 93.867zM904.533 247.467c0-25.6-21.333-51.2-46.933-51.2h-12.8c-85.333-12.8-213.333-51.2-302.933-93.867v605.867c4.267 0 4.267 0 8.533 4.267l8.533 4.267c72.533 46.933 204.8 89.6 285.867 98.133 0 0 4.267 0 4.267 0 17.067 0 29.867-4.267 42.667-12.8s17.067-25.6 17.067-38.4v-516.267zM234.667 567.467h93.867c17.067 0 34.133 12.8 34.133 34.133s-12.8 29.867-29.867 29.867h-98.133c-17.067 0-34.133-12.8-34.133-34.133s17.067-29.867 34.133-29.867zM362.667 503.467h-128c-17.067 0-34.133-12.8-34.133-34.133s12.8-34.133 34.133-34.133h128c17.067 0 34.133 12.8 34.133 34.133s-17.067 34.133-34.133 34.133z" />
<glyph unicode="&#xe90a;" glyph-name="book-fill" d="M844.8 844.8v0c-81.067-8.533-200.533-42.667-277.333-85.333-12.8-8.533-21.333-21.333-21.333-38.4v-593.067c0-29.867 29.867-51.2 59.733-38.4 81.067 34.133 179.2 64 247.467 72.533h12.8c42.667 4.267 76.8 42.667 76.8 85.333v503.467c-4.267 51.2-46.933 93.867-98.133 93.867zM456.533 759.467c-76.8 42.667-196.267 81.067-277.333 85.333v0c-51.2 0-93.867-42.667-93.867-93.867v-507.733c0-42.667 34.133-81.067 76.8-85.333h12.8c68.267-8.533 170.667-38.4 247.467-72.533 25.6-12.8 59.733 8.533 59.733 38.4v597.333c-4.267 17.067-12.8 29.867-25.6 38.4zM213.333 631.467h93.867c21.333 0 34.133-17.067 34.133-34.133s-12.8-34.133-34.133-34.133h-93.867c-17.067 0-34.133 12.8-34.133 34.133 4.267 17.067 17.067 34.133 34.133 34.133zM341.333 439.467h-128c-17.067 0-34.133 12.8-34.133 34.133 0 17.067 12.8 34.133 34.133 34.133h128c17.067 0 34.133-12.8 34.133-34.133s-17.067-34.133-34.133-34.133z" />
<glyph unicode="&#xe90b;" glyph-name="cart" d="M913.067 780.8c-29.867 29.867-68.267 46.933-110.933 46.933h-537.6c-4.267 17.067-12.8 29.867-25.6 42.667-17.067 21.333-46.933 38.4-81.067 38.4h-72.533c-17.067 0-34.133-17.067-34.133-34.133s17.067-34.133 34.133-34.133h72.533c12.8 0 25.6-4.267 34.133-17.067 8.533-8.533 12.8-21.333 12.8-34.133l-34.133-422.4c-4.267-42.667 8.533-85.333 38.4-115.2s68.267-51.2 110.933-51.2h456.533c76.8 0 145.067 64 153.6 140.8l21.333 320c4.267 46.933-12.8 85.333-38.4 119.467zM866.133 349.867c-4.267-42.667-42.667-81.067-89.6-81.067h-456.533c-21.333 0-46.933 8.533-64 25.6s-25.6 42.667-21.333 68.267l34.133 401.067h529.067c25.6 0 46.933-8.533 64-25.6s25.6-42.667 21.333-68.267v-17.067h-499.2c-17.067 0-34.133-17.067-34.133-34.133s17.067-34.133 34.133-34.133h499.2l-17.067-234.667zM691.2 157.867c-46.933 0-85.333-38.4-85.333-85.333s38.4-85.333 85.333-85.333 85.333 38.4 85.333 85.333-34.133 85.333-85.333 85.333zM691.2 55.467c-12.8 0-21.333 8.533-21.333 21.333s8.533 21.333 21.333 21.333 21.333-8.533 21.333-21.333-8.533-21.333-21.333-21.333zM349.867 157.867c-46.933 0-85.333-38.4-85.333-85.333s38.4-85.333 85.333-85.333 85.333 38.4 85.333 85.333-34.133 85.333-85.333 85.333zM349.867 55.467c-12.8 0-21.333 8.533-21.333 21.333s8.533 21.333 21.333 21.333 21.333-8.533 21.333-21.333-8.533-21.333-21.333-21.333z" />
<glyph unicode="&#xe90c;" glyph-name="cart-fill" d="M768 72.533c0-42.415-34.385-76.8-76.8-76.8s-76.8 34.385-76.8 76.8c0 42.415 34.385 76.8 76.8 76.8s76.8-34.385 76.8-76.8zM426.667 72.533c0-42.415-34.385-76.8-76.8-76.8s-76.8 34.385-76.8 76.8c0 42.415 34.385 76.8 76.8 76.8s76.8-34.385 76.8-76.8zM204.8 793.6l-8.533-106.667c0-21.333 12.8-38.4 34.133-38.4h652.8c17.067 0 34.133 12.8 34.133 29.867 4.267 76.8-51.2 136.533-128 136.533h-520.533c-4.267 21.333-12.8 42.667-25.6 55.467-21.333 21.333-51.2 38.4-85.333 38.4h-72.533c-17.067 0-34.133-17.067-34.133-34.133s17.067-34.133 34.133-34.133h72.533c12.8 0 25.6-4.267 34.133-12.8 12.8-8.533 17.067-21.333 12.8-34.133zM874.667 584.533h-652.8c-17.067 0-34.133-12.8-34.133-29.867l-17.067-183.467c-4.267-72.533 51.2-136.533 123.733-136.533h473.6c64 0 119.467 51.2 123.733 115.2l12.8 200.533c4.267 21.333-8.533 34.133-29.867 34.133z" />
<glyph unicode="&#xe90d;" glyph-name="category" d="M298.667 908.8h-85.333c-102.4 0-162.133-59.733-162.133-162.133v-85.333c0-102.4 55.467-162.133 162.133-162.133h85.333c102.4 0 162.133 55.467 162.133 162.133v85.333c0 102.4-59.733 162.133-162.133 162.133zM392.533 661.333c0-68.267-29.867-93.867-93.867-93.867h-85.333c-68.267 0-93.867 25.6-93.867 93.867v85.333c0 68.267 29.867 93.867 93.867 93.867h85.333c68.267 0 93.867-29.867 93.867-93.867v-85.333zM810.667 908.8h-85.333c-102.4 0-162.133-55.467-162.133-162.133v-85.333c0-102.4 55.467-162.133 162.133-162.133h85.333c102.4 0 162.133 55.467 162.133 162.133v85.333c0 102.4-59.733 162.133-162.133 162.133zM904.533 661.333c0-68.267-29.867-93.867-93.867-93.867h-85.333c-68.267 0-93.867 29.867-93.867 93.867v85.333c0 68.267 29.867 93.867 93.867 93.867h85.333c68.267 0 93.867-29.867 93.867-93.867v-85.333zM810.667 396.8h-85.333c-102.4 0-162.133-55.467-162.133-162.133v-85.333c0-102.4 55.467-162.133 162.133-162.133h85.333c102.4 0 162.133 55.467 162.133 162.133v85.333c0 102.4-59.733 162.133-162.133 162.133zM904.533 149.333c0-68.267-29.867-93.867-93.867-93.867h-85.333c-68.267 0-93.867 29.867-93.867 93.867v85.333c0 68.267 29.867 93.867 93.867 93.867h85.333c68.267 0 93.867-29.867 93.867-93.867v-85.333zM298.667 396.8h-85.333c-102.4 0-162.133-55.467-162.133-162.133v-85.333c0-102.4 55.467-162.133 162.133-162.133h85.333c102.4 0 162.133 55.467 162.133 162.133v85.333c0 102.4-59.733 162.133-162.133 162.133zM392.533 149.333c0-68.267-29.867-93.867-93.867-93.867h-85.333c-68.267 0-93.867 29.867-93.867 93.867v85.333c0 68.267 29.867 93.867 93.867 93.867h85.333c68.267 0 93.867-29.867 93.867-93.867v-85.333z" />
<glyph unicode="&#xe90e;" glyph-name="category-2" d="M300.8 921.6h-89.6c-108.8 0-179.2-64-179.2-179.2v-83.2c0-108.8 64-179.2 179.2-179.2h83.2c108.8 0 179.2 64 179.2 179.2v89.6c0 108.8-64 172.8-172.8 172.8zM377.6 659.2c0-57.6-19.2-76.8-76.8-76.8h-89.6c-57.6 0-76.8 19.2-76.8 76.8v89.6c0 57.6 19.2 76.8 76.8 76.8h83.2c57.6 0 76.8-19.2 76.8-76.8v-89.6zM812.8 921.6h-83.2c-108.8 0-179.2-64-179.2-179.2v-83.2c0-108.8 64-179.2 179.2-179.2h83.2c108.8 0 179.2 64 179.2 179.2v89.6c-6.4 108.8-70.4 172.8-179.2 172.8zM889.6 659.2c0-57.6-19.2-76.8-76.8-76.8h-83.2c-57.6 0-76.8 19.2-76.8 76.8v89.6c0 57.6 19.2 76.8 76.8 76.8h83.2c57.6 0 76.8-19.2 76.8-76.8v-89.6zM812.8 409.6h-83.2c-108.8 0-179.2-64-179.2-179.2v-83.2c0-108.8 64-179.2 179.2-179.2h83.2c108.8 0 179.2 64 179.2 179.2v83.2c-6.4 115.2-70.4 179.2-179.2 179.2zM889.6 147.2c0-57.6-19.2-76.8-76.8-76.8h-83.2c-57.6 0-76.8 19.2-76.8 76.8v83.2c0 57.6 19.2 76.8 76.8 76.8h83.2c57.6 0 76.8-19.2 76.8-76.8v-83.2zM300.8 409.6h-89.6c-108.8 0-179.2-64-179.2-179.2v-83.2c0-108.8 64-179.2 179.2-179.2h83.2c108.8 0 179.2 64 179.2 179.2v83.2c0 115.2-64 179.2-172.8 179.2zM377.6 147.2c0-57.6-19.2-76.8-76.8-76.8h-89.6c-57.6 0-76.8 19.2-76.8 76.8v83.2c0 57.6 19.2 76.8 76.8 76.8h83.2c57.6 0 76.8-19.2 76.8-76.8v-83.2z" />
<glyph unicode="&#xe90f;" glyph-name="category-fill" d="M307.2 876.8h-76.8c-96 0-140.8-51.2-140.8-140.8v-83.2c-6.4-96 44.8-140.8 140.8-140.8h83.2c89.6 0 134.4 44.8 134.4 140.8v76.8c0 96-44.8 147.2-140.8 147.2zM793.6 876.8h-83.2c-89.6 0-134.4-51.2-134.4-147.2v-83.2c0-89.6 44.8-134.4 140.8-134.4h83.2c96 0 140.8 51.2 140.8 140.8v76.8c0 96-51.2 147.2-147.2 147.2zM793.6 384h-83.2c-89.6 0-134.4-44.8-134.4-140.8v-83.2c0-96 51.2-140.8 140.8-140.8h83.2c96 0 140.8 51.2 140.8 140.8v83.2c0 96-51.2 140.8-147.2 140.8zM307.2 384h-76.8c-96 0-140.8-51.2-140.8-140.8v-83.2c0-96 51.2-140.8 140.8-140.8h83.2c96 0 140.8 51.2 140.8 140.8v83.2c-6.4 96-51.2 140.8-147.2 140.8z" />
<glyph unicode="&#xe910;" glyph-name="clock" d="M512 908.8c-251.733 0-460.8-209.067-460.8-460.8s209.067-460.8 460.8-460.8 460.8 209.067 460.8 460.8-209.067 460.8-460.8 460.8zM512 55.467c-217.6 0-392.533 174.933-392.533 392.533s174.933 392.533 392.533 392.533 392.533-174.933 392.533-392.533-174.933-392.533-392.533-392.533zM686.933 341.333l-132.267 76.8c-12.8 8.533-25.6 29.867-25.6 46.933v174.933c0 17.067-12.8 34.133-34.133 34.133s-34.133-12.8-34.133-34.133v-174.933c0-38.4 25.6-81.067 55.467-102.4l132.267-76.8c4.267-4.267 12.8-4.267 17.067-4.267 12.8 0 21.333 4.267 25.6 17.067 17.067 12.8 12.8 34.133-4.267 42.667z" />
<glyph unicode="&#xe911;" glyph-name="clock-2" d="M512 921.6c-262.4 0-473.6-211.2-473.6-473.6s211.2-473.6 473.6-473.6c262.4 0 473.6 211.2 473.6 473.6s-211.2 473.6-473.6 473.6zM512 70.4c-211.2 0-377.6 172.8-377.6 377.6 0 211.2 172.8 377.6 377.6 377.6 211.2 0 377.6-172.8 377.6-377.6 0-211.2-166.4-377.6-377.6-377.6zM697.6 352l-134.4 83.2c-6.4 0-19.2 19.2-19.2 32v172.8c0 25.6-19.2 51.2-51.2 51.2s-44.8-25.6-44.8-51.2v-172.8c0-44.8 25.6-89.6 64-115.2l134.4-76.8c6.4-6.4 19.2-6.4 25.6-6.4 19.2 0 32 6.4 38.4 25.6 12.8 19.2 6.4 44.8-12.8 57.6z" />
<glyph unicode="&#xe912;" glyph-name="clock-fill" d="M512.010 874.664c-235.093 0-426.666-191.574-426.666-426.667 0-235.095 191.573-426.666 426.666-426.666s426.665 191.571 426.665 426.666c0 235.093-191.571 426.667-426.665 426.667zM697.613 295.68c-5.978-10.24-16.64-15.789-27.738-15.789-5.542 0-11.091 1.28-16.211 4.691l-132.267 78.935c-32.853 19.627-57.173 62.72-57.173 100.693v174.934c0 17.493 14.506 32 32 32s32-14.507 32-32v-174.934c0-15.36 12.8-37.973 26.026-45.653l132.265-78.933c15.36-8.96 20.48-28.584 11.098-43.944z" />
<glyph unicode="&#xe913;" glyph-name="close" d="M558.933 448l157.867 157.867c12.8 12.8 12.8 34.133 0 46.933s-34.133 12.8-46.933 0l-157.867-157.867-157.867 157.867c-12.8 12.8-34.133 12.8-46.933 0s-12.8-34.133 0-46.933l157.867-157.867-157.867-157.867c-12.8-12.8-12.8-34.133 0-46.933 8.533-4.267 17.067-8.533 25.6-8.533s17.067 4.267 21.333 8.533l157.867 157.867 157.867-157.867c4.267-4.267 12.8-8.533 21.333-8.533s17.067 4.267 21.333 8.533c12.8 12.8 12.8 34.133 0 46.933l-153.6 157.867z" />
<glyph unicode="&#xe914;" glyph-name="close-2" d="M582.4 448l147.2 147.2c19.2 19.2 19.2 51.2 0 70.4s-51.2 19.2-70.4 0l-147.2-147.2-147.2 147.2c-19.2 19.2-51.2 19.2-70.4 0s-19.2-51.2 0-70.4l147.2-147.2-147.2-147.2c-19.2-19.2-19.2-51.2 0-70.4 6.4-6.4 19.2-12.8 32-12.8s25.6 6.4 32 12.8l153.6 147.2 147.2-147.2c6.4-6.4 19.2-12.8 32-12.8s25.6 6.4 32 12.8c19.2 19.2 19.2 51.2 0 70.4l-140.8 147.2z" />
<glyph unicode="&#xe915;" d="M512 21.333c235.639 0 426.667 191.027 426.667 426.667 0 235.642-191.027 426.667-426.667 426.667-235.642 0-426.667-191.025-426.667-426.667 0-235.639 191.025-426.667 426.667-426.667z" />
<glyph unicode="&#xe916;" d="M557.222 448l98.133 98.134c12.373 12.373 12.373 32.853 0 45.226s-32.853 12.373-45.227 0l-98.133-98.134-98.135 98.134c-12.373 12.373-32.853 12.373-45.227 0s-12.373-32.853 0-45.226l98.135-98.134-98.135-98.133c-12.373-12.373-12.373-32.853 0-45.227 6.4-6.4 14.507-9.387 22.613-9.387s16.213 2.987 22.613 9.387l98.135 98.133 98.133-98.133c6.4-6.4 14.507-9.387 22.613-9.387s16.213 2.987 22.613 9.387c12.373 12.373 12.373 32.853 0 45.227l-98.133 98.133z" />
<glyph unicode="&#xe917;" glyph-name="close-circle-fill" d="M512.010 874.664c-235.093 0-426.666-191.574-426.666-426.667 0-235.095 191.573-426.666 426.666-426.666s426.665 191.571 426.665 426.666c0 235.093-191.571 426.667-426.665 426.667zM655.373 349.864c12.371-12.374 12.371-32.853 0-45.224-6.4-6.4-14.509-9.389-22.616-9.389s-16.213 2.989-22.613 9.389l-98.134 98.131-98.133-98.131c-6.4-6.4-14.507-9.389-22.613-9.389s-16.214 2.989-22.614 9.389c-12.373 12.371-12.373 32.851 0 45.224l98.134 98.133-98.134 98.133c-12.373 12.374-12.373 32.854 0 45.227s32.854 12.373 45.227 0l98.133-98.133 98.134 98.133c12.373 12.373 32.851 12.373 45.229 0 12.371-12.373 12.371-32.853 0-45.227l-98.136-98.133 98.136-98.133z" />
<glyph unicode="&#xe918;" glyph-name="coin-1" d="M968.533 486.4c-17.067 221.867-196.267 401.067-422.4 422.4-12.8 0-25.6 0-34.133 0-251.733 0-460.8-209.067-460.8-460.8s209.067-460.8 460.8-460.8 460.8 209.067 460.8 460.8c0 12.8-4.267 25.6-4.267 38.4zM512 55.467c-217.6 0-392.533 174.933-392.533 392.533s174.933 392.533 392.533 392.533c8.533 0 21.333 0 29.867 0 192-17.067 345.6-170.667 362.667-362.667 0-8.533 0-21.333 0-34.133 0-213.333-174.933-388.267-392.533-388.267zM699.733 477.867l-102.4 55.467-55.467 102.4c-12.8 21.333-46.933 21.333-55.467 0l-59.733-102.4-102.4-55.467c-8.533-4.267-17.067-17.067-17.067-29.867s8.533-21.333 17.067-29.867l102.4-55.467 55.467-102.4c4.267-8.533 17.067-17.067 29.867-17.067s21.333 8.533 29.867 17.067l55.467 102.4 102.4 55.467c8.533 4.267 17.067 17.067 17.067 29.867s-8.533 21.333-17.067 29.867zM554.667 418.133c-4.267-4.267-8.533-8.533-12.8-12.8l-29.867-59.733-29.867 59.733c-4.267 4.267-8.533 8.533-12.8 12.8l-59.733 29.867 59.733 29.867c4.267 4.267 8.533 8.533 12.8 12.8l29.867 59.733 29.867-59.733c4.267-4.267 8.533-8.533 12.8-12.8l59.733-29.867-59.733-29.867z" />
<glyph unicode="&#xe919;" glyph-name="coine-2" d="M985.6 486.4c-19.2 230.4-204.8 416-435.2 435.2-12.8 0-25.6 0-38.4 0-262.4 0-473.6-211.2-473.6-473.6s211.2-473.6 473.6-473.6c262.4 0 473.6 211.2 473.6 473.6 0 12.8 0 25.6 0 38.4zM512 70.4c-211.2 0-377.6 172.8-377.6 377.6 0 211.2 172.8 377.6 377.6 377.6 12.8 0 19.2 0 32 0 185.6-12.8 332.8-166.4 345.6-345.6 0-12.8 0-19.2 0-32 0-211.2-166.4-377.6-377.6-377.6zM704 492.8l-96 51.2-51.2 96c-19.2 32-70.4 32-89.6 0l-51.2-96-96-51.2c-19.2-12.8-25.6-25.6-25.6-44.8s6.4-32 25.6-44.8l96-51.2 51.2-96c6.4-12.8 25.6-25.6 44.8-25.6s32 12.8 44.8 25.6l51.2 96 96 51.2c12.8 6.4 25.6 25.6 25.6 44.8s-6.4 32-25.6 44.8zM550.4 428.8c-6.4 0-19.2-12.8-19.2-19.2l-19.2-32-19.2 32c0 6.4-12.8 19.2-19.2 19.2l-32 19.2 32 19.2c6.4 6.4 12.8 12.8 19.2 19.2l19.2 32 19.2-32c6.4-6.4 12.8-12.8 19.2-19.2l32-19.2-32-19.2z" />
<glyph unicode="&#xe91a;" glyph-name="coin-fill" d="M512.010 21.331c235.651 0 426.665 191.014 426.665 426.666 0 11.159-0.653 22.973-1.312 34.132-16.41 208.082-183.136 374.812-391.22 391.222-11.159 0.657-22.974 1.313-34.133 1.313-235.651 0-426.666-191.016-426.666-426.667s191.015-426.666 426.666-426.666zM512.010 618.664l-60.075-110.592-110.591-60.075 110.591-60.075 60.075-110.591 60.075 110.591 110.59 60.075-110.59 60.075-60.075 110.592z" />
<glyph unicode="&#xe91b;" glyph-name="copy" d="M729.6 908.8h-179.2c-166.4 0-243.2-76.8-243.2-243.2v-17.067h-12.8c-166.4 4.267-243.2-72.533-243.2-238.933v-179.2c0-166.4 72.533-243.2 238.933-243.2h179.2c166.4 0 238.933 72.533 238.933 243.2v12.8h12.8c166.4 0 243.2 72.533 243.2 238.933v183.467c8.533 166.4-68.267 243.2-234.667 243.2zM648.533 230.4c0-132.267-42.667-179.2-174.933-179.2h-179.2c-132.267 0-174.933 42.667-174.933 179.2v179.2c0 132.267 42.667 174.933 174.933 174.933h179.2c132.267 0 174.933-42.667 174.933-174.933v-179.2zM904.533 486.4c0-132.267-42.667-174.933-179.2-174.933h-12.8v102.4c0 166.4-72.533 238.933-238.933 238.933h-98.133v12.8c0 132.267 42.667 174.933 174.933 174.933h179.2c132.267 0 179.2-42.667 179.2-174.933v-179.2z" />
<glyph unicode="&#xe91c;" glyph-name="copy-fill" d="M473.6 618.667h-179.2c-149.333 0-209.067-59.733-209.067-209.067v-179.2c0-149.333 59.733-209.067 209.067-209.067h179.2c149.333 0 209.067 59.733 209.067 209.067v179.2c0 149.333-59.733 209.067-209.067 209.067zM729.6 874.667h-179.2c-132.267 0-192-46.933-204.8-157.867-4.267-25.6 17.067-42.667 42.667-42.667h89.6c179.2 0 264.533-85.333 264.533-264.533v-89.6c0-25.6 21.333-42.667 42.667-42.667 110.933 12.8 157.867 72.533 157.867 204.8v183.467c-4.267 149.333-64 209.067-213.333 209.067z" />
<glyph unicode="&#xe91d;" glyph-name="date-1" d="M716.8 840.533v34.133c0 17.067-12.8 34.133-34.133 34.133s-34.133-17.067-34.133-34.133v-34.133h-273.067v34.133c0 17.067-12.8 34.133-34.133 34.133s-34.133-17.067-34.133-34.133v-34.133c-136.533-12.8-213.333-98.133-213.333-243.2v-362.667c0-157.867 89.6-247.467 247.467-247.467h341.333c157.867 0 247.467 89.6 247.467 247.467v362.667c0 145.067-81.067 230.4-213.333 243.2zM307.2 776.533v-29.867c0-17.067 12.8-34.133 34.133-34.133s34.133 17.067 34.133 34.133v34.133h277.333v-34.133c0-17.067 12.8-34.133 34.133-34.133s34.133 12.8 34.133 34.133v29.867c98.133-8.533 145.067-68.267 149.333-170.667h-708.267c0 102.4 51.2 162.133 145.067 170.667zM682.667 55.467h-341.333c-123.733 0-179.2 59.733-179.2 179.2v307.2h704v-307.2c-4.267-123.733-59.733-179.2-183.467-179.2zM669.867 418.133v0c-25.6 0-42.667-17.067-42.667-42.667s21.333-42.667 42.667-42.667 42.667 17.067 42.667 42.667-17.067 42.667-42.667 42.667zM669.867 290.133v0c-25.6 0-42.667-17.067-42.667-42.667s21.333-42.667 42.667-42.667 42.667 17.067 42.667 42.667-17.067 42.667-42.667 42.667zM512 418.133v0c-25.6 0-42.667-17.067-42.667-42.667s21.333-42.667 42.667-42.667 42.667 17.067 42.667 42.667-17.067 42.667-42.667 42.667zM512 290.133v0c-25.6 0-42.667-17.067-42.667-42.667s21.333-42.667 42.667-42.667 42.667 17.067 42.667 42.667-17.067 42.667-42.667 42.667zM354.133 418.133v0c-25.6 0-42.667-17.067-42.667-42.667s21.333-42.667 42.667-42.667 42.667 17.067 42.667 42.667-17.067 42.667-42.667 42.667zM354.133 290.133v0c-25.6 0-42.667-17.067-42.667-42.667s21.333-42.667 42.667-42.667 42.667 17.067 42.667 42.667-17.067 42.667-42.667 42.667z" />
<glyph unicode="&#xe91e;" glyph-name="date-2" d="M729.6 857.6v19.2c0 25.6-19.2 51.2-51.2 51.2s-44.8-25.6-44.8-51.2v-12.8h-243.2v12.8c0 25.6-19.2 51.2-51.2 51.2s-44.8-25.6-44.8-51.2v-19.2c-134.4-19.2-211.2-108.8-211.2-256v-364.8c0-166.4 96-262.4 262.4-262.4h339.2c166.4 0 262.4 96 262.4 262.4v358.4c0 153.6-83.2 243.2-217.6 262.4zM294.4 755.2v-12.8c0-25.6 19.2-51.2 51.2-51.2s51.2 19.2 51.2 51.2v19.2h243.2v-12.8c0-25.6 19.2-51.2 51.2-51.2s51.2 19.2 51.2 51.2v6.4c70.4-12.8 108.8-57.6 115.2-140.8h-678.4c6.4 83.2 38.4 128 115.2 140.8zM844.8 236.8c0-115.2-51.2-166.4-166.4-166.4h-339.2c-115.2 0-166.4 51.2-166.4 166.4v288h672v-288zM672 326.4c25.6 0 51.2 19.2 51.2 51.2s-19.2 51.2-51.2 51.2v0c-25.6 0-44.8-19.2-44.8-51.2s19.2-51.2 44.8-51.2zM672 198.4c25.6 0 51.2 19.2 51.2 51.2s-19.2 51.2-51.2 51.2v0c-25.6 0-44.8-19.2-44.8-51.2s19.2-51.2 44.8-51.2zM512 326.4c25.6 0 51.2 19.2 51.2 51.2s-25.6 44.8-51.2 44.8v0c-25.6 0-44.8-19.2-44.8-51.2s19.2-44.8 44.8-44.8zM512 198.4c25.6 0 51.2 19.2 51.2 51.2s-25.6 44.8-51.2 44.8v0c-25.6 0-44.8-19.2-44.8-51.2s19.2-44.8 44.8-44.8zM352 326.4c25.6 0 51.2 19.2 51.2 51.2s-25.6 44.8-51.2 44.8v0c-25.6 0-44.8-19.2-44.8-51.2s19.2-44.8 44.8-44.8zM352 198.4c25.6 0 51.2 19.2 51.2 51.2s-19.2 51.2-51.2 51.2v0c-25.6 0-44.8-19.2-44.8-51.2s19.2-51.2 44.8-51.2z" />
<glyph unicode="&#xe91f;" glyph-name="date-fill" d="M153.6 601.6h723.2c12.8 0 25.6 12.8 19.2 25.6-6.4 102.4-64 172.8-179.2 179.2v64c0 19.2-12.8 32-32 32s-32-12.8-32-32v-64h-281.6v64c0 19.2-12.8 32-32 32s-32-12.8-32-32v-64c-115.2-6.4-166.4-76.8-179.2-179.2 0-12.8 12.8-25.6 25.6-25.6zM851.2 537.6h-678.4c-25.6 0-44.8-19.2-44.8-38.4v-262.4c0-128 64-211.2 211.2-211.2h339.2c147.2 0 211.2 83.2 211.2 211.2v262.4c6.4 19.2-12.8 38.4-38.4 38.4zM390.4 185.6c0 0-6.4-6.4-6.4-6.4s-6.4 0-6.4-6.4c0 0-6.4 0-6.4 0s-6.4 0-6.4 0-12.8 0-19.2 6.4c-6.4 0-12.8 6.4-12.8 6.4-6.4 6.4-12.8 19.2-12.8 25.6 0 12.8 6.4 19.2 12.8 32 6.4 6.4 6.4 6.4 12.8 6.4 6.4 6.4 19.2 6.4 25.6 6.4 0 0 6.4 0 6.4 0s6.4 0 6.4-6.4c0 0 6.4-6.4 6.4-6.4 6.4-6.4 12.8-19.2 12.8-32 0-6.4 0-19.2-12.8-25.6zM390.4 332.8c-6.4-6.4-19.2-12.8-25.6-12.8s-25.6 6.4-32 12.8c-6.4 6.4-12.8 19.2-12.8 32s6.4 19.2 12.8 25.6 32 12.8 44.8 6.4c6.4 0 12.8-6.4 12.8-6.4 12.8-6.4 12.8-19.2 12.8-25.6s0-25.6-12.8-32zM544 185.6c-6.4-6.4-19.2-12.8-32-12.8s-19.2 6.4-32 12.8c-6.4 6.4-12.8 19.2-12.8 32s6.4 19.2 12.8 32c12.8 12.8 44.8 12.8 57.6 0 6.4-6.4 12.8-19.2 12.8-32 6.4-12.8 0-25.6-6.4-32zM544 332.8c-6.4 0-6.4-6.4 0 0-12.8-6.4-12.8-6.4-12.8-6.4s-6.4 0-6.4 0c0 0-6.4 0-6.4 0-12.8 0-19.2 6.4-32 12.8-12.8 0-19.2 12.8-19.2 25.6s6.4 19.2 12.8 25.6c6.4 6.4 6.4 6.4 12.8 6.4 12.8 6.4 32 0 44.8-6.4s19.2-19.2 19.2-25.6-6.4-25.6-12.8-32zM691.2 185.6c-6.4-6.4-19.2-12.8-32-12.8s-19.2 6.4-32 12.8c-6.4 6.4-12.8 19.2-12.8 32s6.4 19.2 12.8 32c12.8 12.8 44.8 12.8 57.6 0 6.4-6.4 12.8-19.2 12.8-32 6.4-12.8 0-25.6-6.4-32zM691.2 332.8c0 0-6.4-6.4 0 0-6.4-6.4-12.8-6.4-12.8-6.4s-6.4 0-6.4 0c0 0-6.4 0-6.4 0-12.8 0-19.2 6.4-32 12.8-12.8 0-12.8 12.8-12.8 25.6s0 19.2 12.8 25.6c6.4 6.4 6.4 6.4 12.8 6.4 6.4 6.4 19.2 6.4 25.6 0 0 0 6.4 0 6.4 0s6.4 0 6.4-6.4c0 0 6.4-6.4 6.4-6.4 6.4 0 12.8-12.8 12.8-19.2s-6.4-25.6-12.8-32z" />
<glyph unicode="&#xe920;" glyph-name="doc" d="M682.667-12.8h-341.333c-157.867 0-247.467 89.6-247.467 247.467v426.667c0 157.867 89.6 247.467 247.467 247.467h341.333c157.867 0 247.467-89.6 247.467-247.467v-426.667c0-157.867-89.6-247.467-247.467-247.467zM341.333 840.533c-123.733 0-179.2-55.467-179.2-179.2v-426.667c0-123.733 59.733-179.2 179.2-179.2h341.333c123.733 0 179.2 59.733 179.2 179.2v426.667c0 123.733-59.733 179.2-179.2 179.2h-341.333zM789.333 567.467h-85.333c-64 0-119.467 51.2-119.467 119.467v85.333c0 17.067 12.8 34.133 34.133 34.133s34.133-12.8 34.133-34.133v-85.333c0-29.867 25.6-51.2 51.2-51.2h85.333c17.067 0 34.133-12.8 34.133-34.133s-17.067-34.133-34.133-34.133zM512 371.2h-170.667c-17.067 0-34.133 12.8-34.133 34.133s12.8 34.133 34.133 34.133h170.667c17.067 0 34.133-12.8 34.133-34.133s-17.067-34.133-34.133-34.133zM682.667 200.533h-341.333c-17.067 0-34.133 12.8-34.133 34.133s12.8 34.133 34.133 34.133h341.333c17.067 0 34.133-12.8 34.133-34.133s-17.067-34.133-34.133-34.133z" />
<glyph unicode="&#xe921;" d="M674.142 865.707c-17.493 17.493-47.787 5.547-47.787-18.773v-148.907c0-62.293 52.907-113.92 117.333-113.92 40.533-0.427 96.853-0.427 145.067-0.427 24.32 0 37.12 28.587 20.053 45.653-61.44 61.867-171.52 173.227-234.667 236.373z" />
<glyph unicode="&#xe922;" d="M874.667 525.227h-123.307c-101.12 0-183.467 82.347-183.467 183.467v123.307c0 23.467-19.2 42.667-42.667 42.667h-180.907c-131.413 0-237.653-85.333-237.653-237.653v-378.027c0-152.32 106.24-237.653 237.653-237.653h335.36c131.413 0 237.653 85.333 237.653 237.653v223.573c0 23.467-19.2 42.667-42.667 42.667zM490.667 202.667h-170.667c-17.493 0-32 14.507-32 32s14.507 32 32 32h170.667c17.493 0 32-14.507 32-32s-14.507-32-32-32zM576 373.333h-256c-17.493 0-32 14.507-32 32s14.507 32 32 32h256c17.493 0 32-14.507 32-32s-14.507-32-32-32z" />
<glyph unicode="&#xe923;" glyph-name="doc-2-fill" d="M674.142 865.707c-17.493 17.493-47.787 5.547-47.787-18.773v-148.907c0-62.293 52.907-113.92 117.333-113.92 40.533-0.427 96.853-0.427 145.067-0.427 24.32 0 37.12 28.587 20.053 45.653-61.44 61.867-171.52 173.227-234.667 236.373zM874.667 525.227h-123.307c-101.12 0-183.467 82.347-183.467 183.467v123.307c0 23.467-19.2 42.667-42.667 42.667h-180.907c-131.413 0-237.653-85.333-237.653-237.653v-378.027c0-152.32 106.24-237.653 237.653-237.653h335.36c131.413 0 237.653 85.333 237.653 237.653v223.573c0 23.467-19.2 42.667-42.667 42.667zM490.667 202.667h-170.667c-17.493 0-32 14.507-32 32s14.507 32 32 32h170.667c17.493 0 32-14.507 32-32s-14.507-32-32-32zM576 373.333h-256c-17.493 0-32 14.507-32 32s14.507 32 32 32h256c17.493 0 32-14.507 32-32s-14.507-32-32-32z" />
<glyph unicode="&#xe924;" glyph-name="doc-fill" d="M682.667 874.667h-341.333c-149.333 0-213.333-85.333-213.333-213.333v-426.667c0-128 64-213.333 213.333-213.333h341.333c149.333 0 213.333 85.333 213.333 213.333v426.667c0 128-64 213.333-213.333 213.333zM341.333 437.333h170.667c17.493 0 32-14.507 32-32s-14.507-32-32-32h-170.667c-17.493 0-32 14.507-32 32s14.507 32 32 32zM682.667 202.667h-341.333c-17.493 0-32 14.507-32 32s14.507 32 32 32h341.333c17.493 0 32-14.507 32-32s-14.507-32-32-32zM789.333 565.333h-85.333c-64.853 0-117.333 52.48-117.333 117.333v85.333c0 17.493 14.507 32 32 32s32-14.507 32-32v-85.333c0-29.44 23.893-53.333 53.333-53.333h85.333c17.493 0 32-14.507 32-32s-14.507-32-32-32z" />
<glyph unicode="&#xe925;" glyph-name="down-1" d="M793.6 366.933c-12.8 12.8-34.133 12.8-46.933 0l-204.8-204.8v648.533c0 17.067-12.8 34.133-34.133 34.133s-34.133-12.8-34.133-34.133v-648.533l-204.8 204.8c-12.8 12.8-34.133 12.8-46.933 0s-12.8-34.133 0-46.933l260.267-260.267c4.267-4.267 12.8-8.533 21.333-8.533s17.067 4.267 21.333 8.533l260.267 260.267c21.333 12.8 21.333 34.133 8.533 46.933z" />
<glyph unicode="&#xe926;" glyph-name="down-2" d="M806.4 377.6c-19.2 19.2-51.2 19.2-70.4 0l-179.2-179.2v614.4c0 25.6-19.2 51.2-51.2 51.2s-44.8-25.6-44.8-51.2v-608l-172.8 172.8c-19.2 19.2-51.2 19.2-70.4 0s-19.2-51.2 0-70.4l256-256c6.4-6.4 19.2-12.8 32-12.8s25.6 6.4 32 12.8l256 256c32 19.2 32 51.2 12.8 70.4z" />
<glyph unicode="&#xe927;" glyph-name="down-2-1" d="M512 268.8c-8.533 0-17.067 4.267-21.333 8.533l-298.667 298.667c-12.8 12.8-12.8 29.867 0 42.667s34.133 12.8 46.933 0l277.333-277.333 273.067 277.333c12.8 12.8 34.133 12.8 46.933 0s12.8-34.133 0-46.933l-298.667-298.667c-8.533-4.267-17.067-4.267-25.6-4.267z" />
<glyph unicode="&#xe928;" glyph-name="down-2-2" d="M512 249.6c-12.8 0-25.6 6.4-32 12.8l-300.8 300.8c-19.2 19.2-19.2 51.2 0 70.4s51.2 19.2 70.4 0l262.4-268.8 262.4 262.4c19.2 19.2 51.2 19.2 70.4 0s19.2-51.2 0-70.4l-300.8-300.8c-6.4 0-19.2-6.4-32-6.4z" />
<glyph unicode="&#xe929;" glyph-name="down-2-3" d="M512 204.8c-25.6 0-51.2 12.8-64 25.6l-307.2 294.4c-38.4 38.4-38.4 102.4 0 140.8s102.4 38.4 140.8 0l230.4-230.4 230.4 230.4c38.4 38.4 102.4 38.4 140.8 0s38.4-102.4 0-140.8l-307.2-294.4c-12.8-12.8-38.4-25.6-64-25.6z" />
<glyph unicode="&#xe92a;" glyph-name="down-3" d="M819.2 390.4c-25.6 25.6-64 25.6-89.6 0l-153.6-153.6v576c0 38.4-25.6 64-64 64s-64-25.6-64-64v-569.6l-147.2 147.2c-25.6 25.6-64 25.6-89.6 0s-25.6-64 0-89.6l256-256c12.8-12.8 32-19.2 44.8-19.2s32 6.4 44.8 19.2l256 256c25.6 25.6 25.6 64 6.4 89.6z" />
<glyph unicode="&#xe92b;" glyph-name="down-3-1" d="M695.467 256c-12.8 12.8-34.133 12.8-46.933 0l-102.4-102.4v691.2c0 17.067-17.067 29.867-34.133 29.867s-34.133-12.8-34.133-34.133v-691.2l-102.4 102.4c-12.8 12.8-34.133 12.8-46.933 0s-12.8-34.133 0-46.933l157.867-157.867c4.267-4.267 8.533-4.267 8.533-8.533 4.267 0 8.533-4.267 12.8-4.267s8.533 0 12.8 4.267c4.267 0 8.533 4.267 8.533 8.533l157.867 157.867c17.067 21.333 17.067 38.4 8.533 51.2z" />
<glyph unicode="&#xe92c;" glyph-name="down-3-2" d="M704.753 279.341c-18.071 18.071-48.188 18.071-66.259 0l-84.329-78.306v620.424c0 24.094-18.071 48.188-42.165 48.188s-42.165-24.094-42.165-48.188v-620.424l-84.329 78.306c-18.071 18.071-48.188 18.071-66.259 0s-18.071-48.188 0-66.259l162.635-150.588c0 0 6.024 0 6.024-6.024 0 0 6.024-6.024 6.024-6.024 6.024 0 12.047-6.024 18.071-6.024s12.047 0 18.071 6.024c0 0 6.024 0 6.024 6.024 0 0 6.024 0 6.024 6.024l156.612 150.588c24.094 18.071 24.094 48.188 6.024 66.259z" />
<glyph unicode="&#xe92d;" glyph-name="down4" d="M802.133 375.467c-17.067 17.067-42.667 17.067-59.733 0l-187.733-187.733v622.933c0 25.6-17.067 42.667-42.667 42.667s-42.667-17.067-42.667-42.667v-622.933l-187.733 187.733c-17.067 17.067-42.667 17.067-59.733 0s-17.067-42.667 0-59.733l260.267-260.267c8.533-8.533 17.067-12.8 29.867-12.8s21.333 4.267 29.867 12.8l260.267 260.267c17.067 17.067 17.067 42.667 0 59.733z" />
<glyph unicode="&#xe92e;" glyph-name="edit" d="M896 712.533l-119.467 119.467c-38.4 42.667-110.933 42.667-149.333 0l-456.533-456.533c-21.333-21.333-29.867-46.933-29.867-76.8v-192c0-17.067 12.8-34.133 34.133-34.133h192c29.867 0 55.467 12.8 76.8 29.867l452.267 460.8c21.333 21.333 29.867 46.933 29.867 76.8 4.267 25.6-8.533 55.467-29.867 72.533zM392.533 149.333c-8.533-8.533-17.067-12.8-29.867-12.8h-162.133v162.133c0 12.8 4.267 21.333 12.8 29.867l332.8 332.8 179.2-179.2-332.8-332.8zM853.333 610.133l-76.8-76.8-179.2 179.2 76.8 76.8c17.067 17.067 42.667 17.067 59.733 0l119.467-119.467c8.533-8.533 12.8-17.067 12.8-29.867s-8.533-21.333-12.8-29.867zM533.333 469.333c-12.8 12.8-34.133 12.8-46.933 0l-128-128c-12.8-12.8-12.8-34.133 0-46.933 4.267-4.267 12.8-8.533 21.333-8.533s17.067 4.267 21.333 8.533l128 128c17.067 17.067 17.067 34.133 4.267 46.933z" />
<glyph unicode="&#xe92f;" glyph-name="edit-fill" d="M170.542 106.517h193.062c19.785 0.013 38.758 7.872 52.758 21.854l335.024 335.027c-2.095 1.289-4.075 2.837-5.892 4.655l-213.423 213.423c-1.813 1.813-3.362 3.79-4.651 5.883l-335.024-335.023c-13.996-13.99-21.854-32.969-21.854-52.762v-193.058zM571.443 731.382c2.091-1.287 4.070-2.837 5.884-4.651l213.419-213.422c1.818-1.818 3.371-3.797 4.659-5.897l78.874 78.876c14.016 13.989 21.892 32.977 21.892 52.779s-7.876 38.791-21.892 52.78l-118.404 118.406c-13.99 14.016-32.977 21.892-52.779 21.892s-38.793-7.876-52.779-21.892l-78.874-78.872zM534.639 470.626c12.497-12.497 12.497-32.755 0-45.252l-128.053-128.055c-12.497-12.497-32.758-12.497-45.255 0s-12.497 32.759 0 45.257l128.052 128.051c12.497 12.497 32.759 12.497 45.257 0z" />
<glyph unicode="&#xe930;" glyph-name="email" d="M725.333 840.533h-426.667c-157.867 0-247.467-89.6-247.467-247.467v-298.667c0-157.867 89.6-247.467 247.467-247.467h426.667c157.867 0 247.467 89.6 247.467 247.467v298.667c0 162.133-89.6 247.467-247.467 247.467zM904.533 298.667c0-123.733-59.733-179.2-179.2-179.2h-426.667c-123.733 0-179.2 59.733-179.2 179.2v298.667c0 123.733 59.733 179.2 179.2 179.2h426.667c123.733 0 179.2-59.733 179.2-179.2v-298.667zM704 601.6l-132.267-106.667c-34.133-25.6-89.6-25.6-119.467 0l-132.267 106.667c-17.067 8.533-34.133 8.533-46.933-4.267-8.533-17.067-8.533-34.133 4.267-46.933l132.267-106.667c29.867-21.333 64-34.133 98.133-34.133s72.533 12.8 98.133 34.133l132.267 106.667c12.8 12.8 17.067 29.867 4.267 46.933-4.267 12.8-21.333 12.8-38.4 4.267z" />
<glyph unicode="&#xe931;" glyph-name="email-fill" d="M725.333 810.667h-426.667c-128 0-213.333-64-213.333-213.333v-298.667c0-149.333 85.333-213.333 213.333-213.333h426.667c128 0 213.333 64 213.333 213.333v298.667c0 149.333-85.333 213.333-213.333 213.333zM745.387 550.827l-133.547-106.667c-28.16-22.613-64-33.707-99.84-33.707s-72.107 11.093-99.84 33.707l-133.547 106.667c-13.653 11.093-15.787 31.573-5.12 45.227 11.093 13.653 31.147 16.213 44.8 5.12l133.547-106.667c32.427-26.027 87.467-26.027 119.893 0l133.547 106.667c13.653 11.093 34.133 8.96 44.8-5.12 11.093-13.653 8.96-34.133-4.693-45.227z" />
<glyph unicode="&#xe932;" glyph-name="eye" d="M904.533 567.467c-98.133 153.6-243.2 243.2-392.533 243.2-76.8 0-149.333-21.333-217.6-64s-128-102.4-179.2-179.2c-42.667-68.267-42.667-174.933 0-243.2 98.133-153.6 243.2-243.2 392.533-243.2 76.8 0 149.333 21.333 217.6 64s128 102.4 179.2 179.2c42.667 68.267 42.667 179.2 0 243.2zM512 277.333c-93.867 0-170.667 76.8-170.667 170.667s76.8 170.667 170.667 170.667 170.667-76.8 170.667-170.667c0-93.867-76.8-170.667-170.667-170.667zM512 571.733c-68.267 0-119.467-55.467-119.467-123.733s55.467-119.467 119.467-119.467 123.733 55.467 123.733 119.467-55.467 123.733-123.733 123.733z" />
<glyph unicode="&#xe933;" glyph-name="eye-slash" d="M908.8 567.467c-12.8 21.333-25.6 38.4-38.4 55.467-17.067 21.333-46.933 21.333-64 4.267l-128-128c8.533-29.867 12.8-59.733 4.267-93.867-17.067-59.733-64-110.933-123.733-123.733-34.133-8.533-64-8.533-93.867 4.267 0 0-59.733-59.733-106.667-106.667-25.6-21.333-17.067-59.733 12.8-72.533 46.933-17.067 93.867-25.6 140.8-25.6 76.8 0 149.333 21.333 217.6 64s132.267 106.667 179.2 183.467c42.667 68.267 38.4 174.933 0 238.933zM512 324.267c68.267 0 123.733 55.467 123.733 123.733 0 4.267 0 4.267 0 8.533l-128-128c0-4.267 0-4.267 4.267-4.267zM930.133 866.133c-12.8 12.8-34.133 12.8-46.933 0l-132.267-132.267c-72.533 51.2-153.6 81.067-238.933 81.067-76.8 0-149.333-21.333-217.6-64s-128-102.4-179.2-179.2c-42.667-68.267-42.667-174.933 0-243.2 29.867-46.933 64-89.6 102.4-123.733l-123.733-123.733c-12.8-12.8-12.8-34.133 0-46.933 8.533-8.533 17.067-12.8 25.6-12.8s17.067 4.267 21.333 8.533l789.333 789.333c12.8 12.8 12.8 34.133 0 46.933zM341.333 448c0 93.867 76.8 170.667 170.667 170.667 34.133 0 68.267-8.533 98.133-29.867l-38.4-38.4c-17.067 12.8-38.4 21.333-59.733 21.333-68.267 0-123.733-55.467-123.733-123.733 0-21.333 4.267-42.667 17.067-59.733l-38.4-38.4c-17.067 29.867-25.6 64-25.6 98.133z" />
<glyph unicode="&#xe934;" d="M1024 448c0 282.77-229.231 512-512 512s-512-229.23-512-512c0-255.552 187.23-467.371 432-505.779v357.777h-130v148.002h130v112.8c0 128.32 76.442 199.2 193.391 199.2 56 0 114.611-10 114.611-10v-126h-64.563c-63.599 0-83.439-39.47-83.439-80v-96h141.999l-22.699-148.002h-119.3v-357.777c244.77 38.409 432 250.227 432 505.779z" />
<glyph unicode="&#xe935;" d="M711.3 299.998l22.699 148.002h-141.999v96c0 40.49 19.84 80 83.439 80h64.563v126c0 0-58.594 10-114.611 10-116.949 0-193.391-70.88-193.391-199.2v-112.8h-130v-148.002h130v-357.777c53.009-8.294 106.991-8.294 160 0v357.777h119.3z" />
<glyph unicode="&#xe936;" glyph-name="facebook-fill" d="M1024 448c0 282.77-229.231 512-512 512s-512-229.23-512-512c0-255.552 187.23-467.371 432-505.779v357.777h-130v148.002h130v112.8c0 128.32 76.442 199.2 193.391 199.2 56 0 114.611-10 114.611-10v-126h-64.563c-63.599 0-83.439-39.47-83.439-80v-96h141.999l-22.699-148.002h-119.3v-357.777c244.77 38.409 432 250.227 432 505.779z" />
<glyph unicode="&#xe937;" glyph-name="file" d="M422.4 29.867c-72.533 0-140.8 29.867-192 81.067-106.667 106.667-106.667 277.333 0 384l307.2 307.2c38.4 38.4 85.333 59.733 140.8 59.733 51.2 0 102.4-21.333 140.8-59.733 76.8-76.8 76.8-200.533 0-277.333l-307.2-307.2c-46.933-46.933-123.733-46.933-174.933 0-21.333 21.333-34.133 55.467-34.133 85.333 0 34.133 12.8 64 34.133 85.333l234.667 234.667c12.8 12.8 34.133 12.8 46.933 0s12.8-34.133 0-46.933l-234.667-234.667c-12.8-12.8-17.067-25.6-17.067-42.667s4.267-29.867 17.067-42.667c21.333-21.333 59.733-21.333 81.067 0l307.2 307.2c51.2 51.2 51.2 136.533 0 187.733s-136.533 51.2-187.733 0l-307.2-307.2c-81.067-81.067-81.067-213.333 0-294.4 38.4-38.4 93.867-59.733 149.333-59.733s106.667 21.333 149.333 59.733l187.733 187.733c12.8 12.8 34.133 12.8 46.933 0s12.8-34.133 0-46.933l-187.733-187.733c-59.733-42.667-128-72.533-200.533-72.533z" />
<glyph unicode="&#xe938;" glyph-name="filter" d="M85.333 652.8h183.467c12.8-72.533 81.067-128 157.867-128s140.8 55.467 157.867 128h354.133c17.067 0 34.133 12.8 34.133 34.133s-17.067 25.6-34.133 25.6h-354.133c-12.8 72.533-81.067 128-157.867 128s-140.8-51.2-157.867-128h-183.467c-17.067 0-34.133-12.8-34.133-34.133s17.067-25.6 34.133-25.6zM426.667 780.8c51.2 0 93.867-42.667 93.867-93.867s-42.667-93.867-93.867-93.867-93.867 42.667-93.867 93.867 42.667 93.867 93.867 93.867zM938.667 243.2h-192c-21.333 64-81.067 106.667-149.333 106.667s-128-42.667-149.333-106.667h-362.667c-17.067 0-34.133-12.8-34.133-34.133s12.8-34.133 34.133-34.133h354.133c4.267-81.067 72.533-149.333 157.867-149.333s153.6 68.267 157.867 149.333h183.467c17.067 0 34.133 12.8 34.133 34.133s-17.067 34.133-34.133 34.133zM597.333 98.133c-51.2 0-93.867 42.667-93.867 93.867s42.667 93.867 93.867 93.867c51.2 0 93.867-42.667 93.867-93.867s-42.667-93.867-93.867-93.867z" />
<glyph unicode="&#xe939;" glyph-name="filter-fill" d="M115.2 635.733h187.733c8.533-59.733 59.733-102.4 123.733-102.4s115.2 42.667 123.733 102.4h358.4c17.067 0 29.867 12.8 29.867 29.867s-12.8 29.867-29.867 29.867h-358.4c-17.067 55.467-64 93.867-123.733 93.867s-106.667-38.4-123.733-93.867h-187.733c-17.067 0-29.867-12.8-29.867-29.867s12.8-29.867 29.867-29.867zM908.8 260.267h-187.733c-8.533 59.733-59.733 102.4-123.733 102.4s-115.2-42.667-123.733-102.4h-358.4c-17.067 0-29.867-12.8-29.867-29.867s12.8-29.867 29.867-29.867h358.4c17.067-55.467 64-93.867 123.733-93.867s106.667 38.4 123.733 93.867h187.733c17.067 0 29.867 12.8 29.867 29.867s-12.8 29.867-29.867 29.867z" />
<glyph unicode="&#xe93a;" glyph-name="google-fill" d="M930.133 362.667c4.267 12.8 4.267 25.6 4.267 34.133 0 0 0 4.267 0 4.267 0 12.8 4.267 25.6 4.267 42.667 0 29.867-4.267 55.467-8.533 85.333h-418.133v-170.667h243.2c-4.267-12.8-8.533-25.6-17.067-34.133-4.267-4.267-8.533-12.8-8.533-17.067-4.267-4.267-4.267-8.533-8.533-17.067-4.267-4.267-8.533-12.8-12.8-17.067s-8.533-8.533-8.533-12.8c-4.267-4.267-12.8-12.8-17.067-17.067s-8.533-4.267-8.533-8.533c-8.533-8.533-17.067-12.8-25.6-17.067-4.267 0-4.267-4.267-8.533-4.267-8.533-4.267-21.333-8.533-34.133-12.8 0 0-4.267 0-4.267 0-12.8-4.267-25.6-8.533-38.4-8.533 0 0 0 0 0 0-21.333 0-38.4 0-51.2 0 0 0 0 0 0 0-12.8 0-25.6 0-38.4 4.267-4.267 0-4.267 0-8.533 0-12.8 0-21.333 4.267-34.133 8.533 0 0-4.267 0-4.267 0-8.533 4.267-21.333 8.533-29.867 12.8 0 0-4.267 0-4.267 0-12.8 4.267-21.333 12.8-29.867 17.067 0 0 0 0-4.267 0-21.333 12.8-38.4 34.133-55.467 51.2 0 0 0 0 0 0-17.067 21.333-29.867 42.667-38.4 68.267-4.267 34.133-8.533 64-8.533 93.867 0 34.133 8.533 68.267 17.067 93.867 4.267 12.8 12.8 25.6 17.067 34.133 0 0 0 0 0 4.267 8.533 8.533 17.067 17.067 21.333 29.867 0 0 0 0 0 0 8.533 8.533 17.067 17.067 25.6 25.6 0 0 4.267 4.267 4.267 4.267 8.533 8.533 17.067 12.8 25.6 21.333 0 0 0 0 0 0 8.533 4.267 17.067 12.8 29.867 17.067 4.267 0 4.267 0 8.533 4.267 8.533 4.267 21.333 8.533 29.867 12.8 0 0 0 0 0 0 12.8 4.267 21.333 4.267 34.133 8.533 4.267 0 4.267 0 8.533 0 8.533 0 21.333 0 34.133 0 0 0 0 0 0 0 64 0 123.733-25.6 170.667-64v0c0 0 0 0 0 0l119.467 119.467c-76.8 72.533-179.2 115.2-290.133 115.2v0c0 0 0 0 0 0s0 0 0 0c-17.067 0-38.4 0-55.467-4.267-4.267 0-8.533 0-12.8-4.267-12.8-4.267-29.867-4.267-42.667-8.533-4.267 0-8.533 0-12.8-4.267-12.8 0-29.867-8.533-46.933-12.8-4.267 0-4.267-4.267-8.533-4.267-12.8-8.533-25.6-12.8-38.4-21.333-4.267 0-8.533-4.267-8.533-4.267-29.867-21.333-59.733-42.667-81.067-68.267 0 0-4.267-4.267-4.267-4.267-12.8-12.8-25.6-25.6-34.133-38.4 0 0-4.267-4.267-4.267-4.267-8.533-17.067-17.067-34.133-25.6-46.933 0 0 0 0 0 0v0c-34.133-59.733-51.2-128-51.2-200.533 0-68.267 17.067-136.533 46.933-192v0c0 0 0 0 0 0 17.067-34.133 38.4-64 64-93.867 0 0 4.267-4.267 4.267-4.267 25.6-25.6 51.2-51.2 85.333-68.267 4.267 0 4.267-4.267 8.533-4.267 12.8-8.533 25.6-17.067 42.667-21.333 4.267 0 4.267-4.267 8.533-4.267 17.067-8.533 34.133-12.8 51.2-17.067 4.267 0 4.267 0 8.533-4.267 12.8-4.267 29.867-8.533 42.667-8.533 4.267 0 8.533 0 12.8-4.267 12.8-4.267 34.133-4.267 51.2-4.267 0 0 0 0 0 0v0c12.8 0 29.867 0 42.667 0 4.267 0 12.8 0 17.067 4.267 8.533 0 17.067 0 21.333 4.267 8.533 0 17.067 4.267 25.6 4.267 4.267 0 8.533 4.267 17.067 4.267 8.533 4.267 17.067 4.267 25.6 8.533 4.267 0 8.533 4.267 8.533 4.267 8.533 4.267 21.333 8.533 29.867 12.8 0 0 4.267 0 4.267 4.267 8.533 4.267 21.333 12.8 29.867 17.067 0 0 0 0 4.267 0 8.533 8.533 21.333 12.8 29.867 21.333 0 0 0 0 0 0 8.533 8.533 21.333 17.067 29.867 25.6 0 0 0 0 0 0-4.267-4.267 98.133 72.533 132.267 230.4 0 0 0 0 0 0zM797.867 132.267v0c0 0 0 0 0 0v0z" />
<glyph unicode="&#xe93b;" d="M930.368 531.563h-34.368v1.771h-384v-170.667h241.131c-35.179-99.349-129.707-170.667-241.131-170.667-141.376 0-256 114.624-256 256s114.624 256 256 256c65.259 0 124.629-24.619 169.835-64.832l120.683 120.683c-76.203 71.019-178.133 114.816-290.517 114.816-235.627 0-426.667-191.040-426.667-426.667s191.040-426.667 426.667-426.667c235.627 0 426.667 191.040 426.667 426.667 0 28.608-2.944 56.533-8.299 83.563z" />
<glyph unicode="&#xe93c;" d="M134.521 646.592l140.181-102.805c37.931 93.909 129.792 160.213 237.289 160.213 65.259 0 124.629-24.619 169.835-64.832l120.683 120.683c-76.203 71.019-178.133 114.816-290.517 114.816-163.881 0-306.004-92.523-377.471-228.075z" />
<glyph unicode="&#xe93d;" d="M512.009 21.333c110.208 0 210.347 42.176 286.059 110.763l-132.053 111.744c-44.279-33.673-98.381-51.883-154.005-51.84-110.978 0-205.207 70.763-240.706 169.515l-139.136-107.2c70.613-138.176 214.016-232.981 379.842-232.981z" />
<glyph unicode="&#xe93e;" d="M930.368 531.563h-34.368v1.771h-384v-170.667h241.131c-16.828-47.283-47.138-88.602-87.189-118.848l0.064 0.043 132.053-111.744c-9.344-8.491 140.608 102.549 140.608 315.883 0 28.608-2.944 56.533-8.299 83.563z" />
<glyph unicode="&#xe93f;" glyph-name="Graduation-hat" d="M947.2 571.733c0 55.467-29.867 110.933-76.8 140.8l-256 166.4c-55.467 38.4-145.067 38.4-204.8 0l-256-166.4c-46.933-29.867-76.8-85.333-76.8-140.8s29.867-110.933 76.8-140.8l55.467-34.133v-192c0-68.267 51.2-136.533 115.2-157.867l136.533-46.933c17.067-4.267 34.133-8.533 51.2-8.533s38.4 4.267 55.467 8.533l136.533 46.933c64 21.333 115.2 89.6 115.2 157.867v192l55.467 34.133c4.267 4.267 8.533 4.267 12.8 8.533v-119.467c0-17.067 12.8-34.133 34.133-34.133s34.133 12.8 34.133 34.133v234.667c-8.533 4.267-8.533 12.8-8.533 17.067zM750.933 200.533c0-38.4-34.133-85.333-72.533-98.133l-136.533-46.933c-17.067-4.267-51.2-4.267-68.267 0l-132.267 46.933c-38.4 12.8-72.533 59.733-72.533 98.133v149.333l140.8-89.6c29.867-17.067 64-29.867 102.4-29.867s72.533 8.533 102.4 29.867l136.533 89.6v-149.333zM836.267 482.133l-256-166.4c-34.133-21.333-98.133-21.333-132.267 0l-256 166.4c-29.867 21.333-46.933 51.2-46.933 85.333s17.067 68.267 46.933 85.333l256 166.4c0 0 0 0 0 0 17.067 12.8 42.667 17.067 64 17.067 25.6 0 51.2-4.267 68.267-17.067l256-166.4c29.867-17.067 42.667-46.933 46.933-81.067 0 0 0 0 0 0v-12.8c-4.267-29.867-21.333-55.467-46.933-76.8z" />
<glyph unicode="&#xe940;" glyph-name="Graduation-hat-fill" d="M716.8 294.4l-85.333-55.467c-34.133-25.6-76.8-38.4-119.467-38.4s-85.333 12.8-119.467 34.133l-89.6 55.467c-29.867 17.067-64 0-64-34.133v-55.467c0-55.467 42.667-110.933 93.867-128l136.533-46.933c21.333-8.533 64-8.533 85.333 0l136.533 46.933c51.2 17.067 93.867 76.8 93.867 128v55.467c0 34.133-38.4 55.467-68.267 38.4zM853.333 682.667l-256 166.4c-46.933 29.867-123.733 29.867-166.4 0l-260.267-166.4c-81.067-51.2-81.067-174.933 0-226.133l68.267-42.667 187.733-123.733c46.933-29.867 123.733-29.867 166.4 0l187.733 123.733 59.733 38.4v-132.267c0-17.067 12.8-34.133 34.133-34.133s34.133 12.8 34.133 34.133v209.067c17.067 55.467-4.267 119.467-55.467 153.6z" />
<glyph unicode="&#xe941;" glyph-name="home" d="M878.933 686.933l-264.533 183.467c-68.267 51.2-179.2 46.933-247.467-4.267 0 0 0 0 0 0l-230.4-179.2c-46.933-38.4-85.333-110.933-85.333-170.667v-315.733c0-115.2 93.867-213.333 213.333-213.333h494.933c115.2 0 213.333 93.867 213.333 213.333v311.467c0 64-42.667 136.533-93.867 174.933zM904.533 200.533c0-81.067-68.267-149.333-149.333-149.333h-490.667c-81.067 0-149.333 68.267-149.333 149.333v315.733c0 38.4 25.6 93.867 55.467 115.2l230.4 179.2c46.933 34.133 128 38.4 174.933 4.267l264.533-183.467c34.133-21.333 64-81.067 64-119.467v-311.467zM512 354.133c-17.067 0-34.133-12.8-34.133-34.133v-128c0-17.067 12.8-34.133 34.133-34.133s34.133 12.8 34.133 34.133v128c0 17.067-17.067 34.133-34.133 34.133z" />
<glyph unicode="&#xe942;" glyph-name="home-fill" d="M855.049 669.011l-245.76 171.947c-66.987 46.933-169.813 44.373-234.239-5.547l-213.76-166.827c-42.667-33.28-76.373-101.547-76.373-155.308v-294.4c0-108.8 88.32-197.547 197.12-197.547h459.945c108.8 0 197.12 88.32 197.12 197.12v289.28c0 57.602-37.12 128.428-84.053 161.282zM544.009 191.996c0-17.493-14.507-32-32-32s-32 14.507-32 32v128c0 17.493 14.507 32 32 32s32-14.507 32-32v-128z" />
<glyph unicode="&#xe943;" glyph-name="info-fill" d="M511.992 874.669c-235.094 0-426.667-191.573-426.667-426.666s191.574-426.667 426.667-426.667 426.668 191.575 426.668 426.667c0 235.094-191.575 426.666-426.668 426.666zM479.992 618.669c0 17.494 14.506 32 32 32s31.998-14.506 31.998-32v-213.334c0-17.495-14.505-32-31.998-32s-32 14.505-32 32v213.334zM551.245 261.12c-2.135-5.545-5.12-9.81-8.96-14.080-4.265-3.84-8.96-6.825-14.080-8.96-5.12-2.13-10.665-3.41-16.213-3.41-5.547 0-11.094 1.28-16.214 3.41-5.12 2.135-9.814 5.12-14.080 8.96-3.84 4.27-6.826 8.535-8.96 14.080-2.134 5.12-3.414 10.67-3.414 16.215s1.28 11.095 3.414 16.215c2.134 5.12 5.12 9.81 8.96 14.080 4.266 3.84 8.96 6.825 14.080 8.96 10.24 4.265 22.186 4.265 32.426 0 5.12-2.135 9.815-5.12 14.080-8.96 3.84-4.27 6.825-8.96 8.96-14.080s3.415-10.67 3.415-16.215c0-5.545-1.28-11.095-3.415-16.215z" />
<glyph unicode="&#xe944;" d="M512 21.333c235.639 0 426.667 191.027 426.667 426.667 0 235.642-191.027 426.667-426.667 426.667-235.642 0-426.667-191.025-426.667-426.667 0-235.639 191.025-426.667 426.667-426.667z" />
<glyph unicode="&#xe945;" d="M512 373.333c17.493 0 32 14.507 32 32v213.333c0 17.493-14.507 32-32 32s-32-14.507-32-32v-213.333c0-17.493 14.507-32 32-32z" />
<glyph unicode="&#xe946;" d="M551.253 293.547c-2.133 5.12-5.12 9.813-8.96 14.080-4.267 3.84-8.96 6.827-14.080 8.96-10.24 4.267-22.187 4.267-32.427 0-5.12-2.133-9.813-5.12-14.080-8.96-3.84-4.267-6.827-8.96-8.96-14.080s-3.413-10.667-3.413-16.213c0-5.547 1.28-11.093 3.413-16.213 2.133-5.547 5.12-9.813 8.96-14.080 4.267-3.84 8.96-6.827 14.080-8.96s10.667-3.413 16.213-3.413c5.547 0 11.093 1.28 16.213 3.413s9.813 5.12 14.080 8.96c3.84 4.267 6.827 8.533 8.96 14.080 2.133 5.12 3.413 10.667 3.413 16.213s-1.28 11.093-3.413 16.213z" />
<glyph unicode="&#xe947;" glyph-name="instagram" d="M1019.733 657.067c-4.267 55.467-12.8 93.867-25.6 123.733-8.533 34.133-25.6 64-55.467 93.867s-55.467 46.933-89.6 59.733c-34.133 12.8-68.267 21.333-123.733 25.6-55.467 0-72.533 0-213.333 0s-157.867 0-209.067-4.267c-55.467 0-93.867-8.533-128-21.333-29.867-12.8-59.733-29.867-89.6-59.733s-46.933-59.733-59.733-89.6c-12.8-34.133-21.333-72.533-21.333-123.733-4.267-55.467-4.267-72.533-4.267-213.333s0-157.867 4.267-209.067c4.267-55.467 12.8-93.867 25.6-123.733 8.533-34.133 25.6-64 55.467-93.867s55.467-46.933 89.6-59.733c34.133-12.8 68.267-21.333 123.733-25.6 55.467 0 72.533 0 213.333 0s157.867 0 209.067 4.267c55.467 4.267 93.867 12.8 123.733 25.6 34.133 12.8 64 29.867 89.6 59.733 29.867 29.867 46.933 55.467 59.733 89.6s21.333 68.267 25.6 123.733c4.267 51.2 4.267 68.267 4.267 209.067s0 157.867-4.267 209.067zM930.133 243.2c-4.267-51.2-8.533-76.8-17.067-93.867-8.533-25.6-21.333-42.667-38.4-59.733s-34.133-29.867-59.733-38.4c-17.067-8.533-46.933-17.067-93.867-17.067-55.467-4.267-68.267-4.267-204.8-4.267s-153.6 0-204.8 4.267c-51.2 4.267-76.8 8.533-93.867 17.067-25.6 8.533-42.667 21.333-59.733 38.4s-29.867 34.133-38.4 59.733c-8.533 17.067-17.067 46.933-17.067 93.867-4.267 55.467-4.267 68.267-4.267 204.8s0 153.6 4.267 204.8c-4.267 51.2 4.267 81.067 12.8 98.133 8.533 25.6 21.333 42.667 38.4 59.733s34.133 25.6 55.467 38.4c17.067 4.267 46.933 12.8 98.133 17.067 51.2 0 68.267 0 204.8 0s153.6 0 204.8-4.267c51.2-4.267 76.8-8.533 93.867-17.067 25.6-8.533 42.667-21.333 59.733-38.4s29.867-34.133 38.4-59.733c8.533-17.067 17.067-46.933 17.067-93.867 4.267-55.467 4.267-68.267 4.267-204.8s0-153.6 0-204.8zM512 712.533c-145.067 0-264.533-119.467-264.533-264.533s119.467-264.533 264.533-264.533c145.067 0 264.533 119.467 264.533 264.533s-119.467 264.533-264.533 264.533zM512 277.333c-93.867 0-170.667 76.8-170.667 170.667s76.8 170.667 170.667 170.667 170.667-76.8 170.667-170.667-76.8-170.667-170.667-170.667zM785.067 780.8c-34.133 0-59.733-25.6-59.733-59.733s25.6-59.733 59.733-59.733c34.133 0 59.733 25.6 59.733 59.733s-25.6 59.733-59.733 59.733z" />
<glyph unicode="&#xe948;" d="M192.196 913.601c-32.4-12.6-59.8-29.4-87.2-56.8-27.4-27.2-44.2-54.8-56.8-87-12.2-31.2-20.4-67-22.8-119.4s-3-69.2-3-202.802c0-133.598 0.6-150.4 3-202.799s10.8-88.201 22.8-119.398c12.6-32.401 29.4-59.802 56.8-87.202s54.8-44.198 87.2-56.798c31.2-12.203 67-20.403 119.4-22.801 52.4-2.402 69.2-2.999 202.798-2.999 133.602 0 150.4 0.597 202.803 2.999 52.399 2.398 88.201 10.799 119.398 22.801 32.401 12.599 59.802 29.397 87.202 56.798 27.396 27.401 44.198 54.801 56.798 87.202 12.198 31.198 20.399 66.999 22.801 119.398 2.398 52.399 2.999 69.201 2.999 202.799 0 133.602-0.602 150.402-2.999 202.802-2.402 52.4-10.799 88.2-22.801 119.4-12.599 32.2-29.402 59.8-56.602 87-27.396 27.4-54.797 44.2-87.198 56.8-31.202 12.2-66.999 20.4-119.398 22.8-52.403 2.4-69.201 3-202.803 3-133.598 0-150.398-0.6-202.799-3-52.6-2.2-88.4-10.6-119.6-22.8zM713.195 848.001c48-2.2 74.001-10.2 91.401-17 23.002-9 39.398-19.6 56.602-36.8 17.199-17.2 27.797-33.6 36.8-56.6 6.797-17.4 14.797-43.4 16.998-91.4 2.402-51.8 2.799-67.4 2.799-198.798 0-131.401-0.597-147.004-2.799-198.801-2.202-48-10.202-74.001-16.998-91.401-9.003-23.002-19.601-39.398-36.8-56.602-17.203-17.199-33.6-27.797-56.602-36.8-17.399-6.797-43.401-14.797-91.401-16.998-51.797-2.402-67.401-2.799-198.801-2.799-131.398 0-146.998 0.597-198.798 2.799-48 2.202-74 10.202-91.4 16.998-23 9.003-39.4 19.601-56.6 36.8-17.2 17.203-27.8 33.6-36.8 56.602-6.8 17.399-14.8 43.401-17 91.401-2.4 51.797-2.8 67.401-2.8 198.801 0 131.398 0.6 146.998 2.8 198.798 2.2 48 10.2 74 17 91.4 9 23 19.6 39.4 36.8 56.6s33.6 27.8 56.6 36.8c17.4 6.8 43.4 14.8 91.4 17 51.8 2.4 67.4 2.8 198.798 2.8 131.401 0 147.004-0.4 198.801-2.8z" />
<glyph unicode="&#xe949;" d="M261.792 447.398c0-139.597 113.2-252.599 252.602-252.599 139.396 0 252.599 113.203 252.599 252.599 0 139.402-113.003 252.602-252.599 252.602-139.602 0-252.602-113-252.602-252.602zM678.391 447.398c0-90.598-73.399-163.998-163.998-163.998-90.602 0-164.002 73.399-164.002 163.998 0 90.602 73.4 164.002 164.002 164.002 90.598 0 163.998-73.4 163.998-164.002z" />
<glyph unicode="&#xe94a;" d="M777.186 651c32.585 0 58.999 26.415 58.999 59s-26.415 59-58.999 59c-32.585 0-58.999-26.415-58.999-59s26.415-59 58.999-59z" />
<glyph unicode="&#xe94b;" glyph-name="left" d="M874.667 482.133h-648.533l204.8 204.8c12.8 12.8 12.8 34.133 0 46.933s-34.133 8.533-46.933-4.267l-256-260.267c-12.8-12.8-12.8-34.133 0-46.933l256-256c4.267-4.267 12.8-8.533 21.333-8.533s17.067 4.267 21.333 8.533c12.8 12.8 12.8 34.133 0 46.933l-204.8 204.8h648.533c17.067 0 34.133 12.8 34.133 34.133s-12.8 29.867-29.867 29.867z" />
<glyph unicode="&#xe94c;" glyph-name="left-2" d="M409.6 145.067c-12.8 0-21.333 4.267-29.867 12.8l-260.267 260.267c-17.067 17.067-17.067 42.667 0 59.733l260.267 260.267c17.067 17.067 42.667 17.067 59.733 0s17.067-42.667 0-59.733l-230.4-230.4 230.4-230.4c17.067-17.067 17.067-42.667 0-59.733-8.533-8.533-21.333-12.8-29.867-12.8zM874.667 405.333h-716.8c-25.6 0-42.667 17.067-42.667 42.667s17.067 42.667 42.667 42.667h716.8c25.6 0 42.667-17.067 42.667-42.667s-17.067-42.667-42.667-42.667z" />
<glyph unicode="&#xe94d;" glyph-name="left-2-1" d="M661.333 115.2c-8.533 0-17.067 4.267-21.333 8.533l-298.667 298.667c-12.8 12.8-12.8 34.133 0 46.933l298.667 298.667c12.8 12.8 34.133 12.8 46.933 0s12.8-34.133 0-46.933l-277.333-273.067 277.333-277.333c12.8-12.8 12.8-34.133 0-46.933-8.533-4.267-17.067-8.533-25.6-8.533z" />
<glyph unicode="&#xe94e;" glyph-name="left-2-2" d="M659.2 102.4c-12.8 0-25.6 6.4-32 12.8l-300.8 300.8c-6.4 6.4-12.8 19.2-12.8 32s6.4 25.6 12.8 32l300.8 300.8c19.2 19.2 51.2 19.2 70.4 0s19.2-51.2 0-70.4l-268.8-262.4 262.4-262.4c19.2-19.2 19.2-51.2 0-70.4-6.4-6.4-19.2-12.8-32-12.8z" />
<glyph unicode="&#xe94f;" glyph-name="left-2-3" d="M665.6 51.2c-25.6 0-51.2 12.8-76.8 25.6l-294.4 307.2c-38.4 38.4-38.4 89.6 0 128l294.4 294.4c38.4 38.4 102.4 38.4 140.8 0 38.4-25.6 38.4-89.6 0-128l-230.4-230.4 230.4-230.4c38.4-38.4 38.4-102.4 0-140.8-25.6-12.8-38.4-25.6-64-25.6z" />
<glyph unicode="&#xe950;" glyph-name="left-3" d="M876.8 499.2h-614.4l179.2 179.2c19.2 19.2 19.2 51.2 0 70.4s-51.2 19.2-70.4 0l-256-256c-6.4-19.2-12.8-32-12.8-44.8s6.4-25.6 12.8-32l256-256c6.4-6.4 19.2-12.8 32-12.8s25.6 6.4 32 12.8c19.2 19.2 19.2 51.2 0 70.4l-172.8 166.4h608c25.6 0 51.2 19.2 51.2 51.2s-19.2 51.2-44.8 51.2z" />
<glyph unicode="&#xe951;" glyph-name="left-3-1" d="M896 490.667h-691.2l102.4 102.4c12.8 12.8 12.8 34.133 0 46.933s-34.133 12.8-46.933 0l-157.867-157.867c-4.267-4.267-4.267-8.533-8.533-8.533-4.267-8.533-4.267-17.067 0-25.6 0-4.267 4.267-8.533 8.533-8.533l162.133-162.133c4.267-4.267 12.8-8.533 21.333-8.533s17.067 4.267 21.333 8.533c12.8 12.8 12.8 34.133 0 46.933l-102.4 102.4h691.2c17.067 0 34.133 12.8 34.133 34.133s-17.067 29.867-34.133 29.867z" />
<glyph unicode="&#xe952;" glyph-name="left-3-2" d="M896 505.6h-652.8l76.8 76.8c19.2 19.2 19.2 51.2 0 70.4s-51.2 19.2-70.4 0l-153.6-160c-6.4-6.4-12.8-6.4-12.8-12.8s-6.4-12.8-6.4-19.2 0-12.8 6.4-19.2c0-6.4 6.4-12.8 12.8-12.8l160-160c6.4-12.8 19.2-12.8 32-12.8s25.6 0 32 12.8c19.2 19.2 19.2 51.2 0 70.4l-76.8 70.4h652.8c25.6 0 51.2 19.2 51.2 51.2s-25.6 44.8-51.2 44.8z" />
<glyph unicode="&#xe953;" glyph-name="left-4" d="M876.8 512h-576l147.2 147.2c25.6 25.6 25.6 64 0 89.6s-64 25.6-89.6 0l-256-256c-12.8-12.8-19.2-25.6-19.2-44.8s6.4-32 19.2-44.8l256-256c19.2-12.8 32-19.2 51.2-19.2s32 6.4 44.8 19.2c25.6 25.6 25.6 64 0 89.6l-153.6 147.2h569.6c38.4 0 64 25.6 64 64s-25.6 64-57.6 64z" />
<glyph unicode="&#xe954;" glyph-name="linkdin-fill" d="M948.198 960h-872.599c-41.8 0-75.6-33-75.6-73.8v-876.199c0-40.802 33.8-74.001 75.6-74.001h872.599c41.801 0 75.802 33.199 75.802 73.801v876.399c0 40.8-34.001 73.8-75.802 73.8zM303.8 87.398h-152v488.802h152v-488.802zM227.8 642.8c-48.8 0-88.2 39.4-88.2 88s39.4 88 88.2 88c48.6 0 88-39.4 88-88 0-48.4-39.4-88-88-88zM872.602 87.398h-151.804v237.602c0 56.597-0.998 129.6-78.997 129.6-79.002 0-90.999-61.803-90.999-125.602v-241.6h-151.601v488.802h145.598v-66.799h2.001c20.203 38.398 69.803 78.998 143.603 78.998 153.796 0 182.199-101.202 182.199-232.799v-268.203z" />
<glyph unicode="&#xe955;" glyph-name="logout" d="M648.533 285.867c-17.067 0-34.133-12.8-34.133-29.867-12.8-132.267-76.8-183.467-234.667-183.467h-4.267c-174.933 0-234.667 59.733-234.667 234.667v277.333c0 174.933 59.733 234.667 234.667 234.667h4.267c157.867 0 221.867-51.2 234.667-187.733 0-17.067 17.067-29.867 34.133-29.867s29.867 17.067 29.867 34.133c-12.8 170.667-106.667 247.467-298.667 247.467h-4.267c-209.067 0-298.667-89.6-298.667-298.667v-277.333c0-209.067 89.6-298.667 298.667-298.667h4.267c187.733 0 281.6 72.533 294.4 243.2 4.267 17.067-8.533 34.133-25.6 34.133zM938.667 469.333l-140.8 145.067c-12.8 12.8-34.133 12.8-46.933 0s-12.8-34.133 0-46.933l89.6-89.6h-456.533c-17.067 0-34.133-12.8-34.133-34.133s12.8-34.133 34.133-34.133h456.533l-89.6-89.6c-12.8-12.8-12.8-34.133 0-46.933 4.267-4.267 12.8-8.533 21.333-8.533s17.067 4.267 21.333 8.533l140.8 140.8c17.067 25.6 17.067 42.667 4.267 55.467z" />
<glyph unicode="&#xe956;" glyph-name="logout-fill" d="M418.133 874.667h-110.933c-136.533 0-221.867-85.333-221.867-221.867v-409.6c0-136.533 85.333-221.867 221.867-221.867h110.933c136.533 0 221.867 85.333 221.867 221.867v170.667h-268.8c-17.067 0-29.867 17.067-29.867 34.133s12.8 34.133 34.133 34.133h264.533v170.667c0 136.533-85.333 221.867-221.867 221.867zM930.133 469.333l-140.8 140.8c-12.8 12.8-34.133 12.8-46.933 0-4.267-4.267-8.533-12.8-8.533-21.333s4.267-17.067 8.533-21.333l89.6-89.6h-192v-64h187.733l-89.6-89.6c-12.8-12.8-12.8-34.133 0-46.933s34.133-12.8 46.933 0l140.8 140.8c17.067 21.333 17.067 38.4 4.267 51.2z" />
<glyph unicode="&#xe957;" glyph-name="melat" d="M0 960h1024v-1024h-1024v1024z" />
<glyph unicode="&#xe958;" glyph-name="menu" d="M128 627.2h768c17.067 0 34.133 12.8 34.133 34.133s-17.067 34.133-34.133 34.133h-768c-17.067 0-34.133-17.067-34.133-34.133s17.067-34.133 34.133-34.133zM896 482.133h-768c-17.067 0-34.133-12.8-34.133-34.133s12.8-34.133 34.133-34.133h768c17.067 0 34.133 12.8 34.133 34.133s-17.067 34.133-34.133 34.133zM896 268.8h-768c-17.067 0-34.133-12.8-34.133-34.133s12.8-34.133 34.133-34.133h768c17.067 0 34.133 12.8 34.133 34.133s-17.067 34.133-34.133 34.133z" />
<glyph unicode="&#xe959;" glyph-name="message" d="M661.333 541.867h-298.667c-17.067 0-34.133-12.8-34.133-34.133s12.8-34.133 34.133-34.133h298.667c17.067 0 34.133 12.8 34.133 34.133s-17.067 34.133-34.133 34.133zM725.333 887.467h-426.667c-145.067 0-247.467-98.133-247.467-243.2v-256c0-145.067 98.133-247.467 247.467-247.467h162.133l179.2-119.467c12.8-8.533 25.6-12.8 42.667-12.8 12.8 0 25.6 4.267 34.133 8.533 25.6 12.8 38.4 38.4 38.4 64v59.733c128 12.8 213.333 106.667 213.333 243.2v256c4.267 149.333-98.133 247.467-243.2 247.467zM904.533 388.267c0-110.933-72.533-179.2-179.2-179.2-17.067 0-34.133-12.8-34.133-34.133v-89.6c0-4.267-4.267-8.533-4.267-8.533s-4.267-4.267-12.8 0l-187.733 128c-4.267 4.267-12.8 4.267-17.067 4.267h-170.667c-110.933 0-179.2 72.533-179.2 179.2v256c0 110.933 72.533 179.2 179.2 179.2h426.667c110.933 0 179.2-72.533 179.2-179.2v-256z" />
<glyph unicode="&#xe95a;" glyph-name="message-fill" d="M725.333 856.318h-426.667c-128 0-213.333-85.333-213.333-213.333v-256.002c0-128 85.333-213.333 213.333-213.333h170.667l189.867-126.293c28.16-18.773 66.133 1.28 66.133 35.413v90.88c128 0 213.333 85.333 213.333 213.333v256.002c0 128-85.333 213.333-213.333 213.333zM661.333 479.996h-298.667c-17.493 0-32 14.507-32 32s14.507 32.002 32 32.002h298.667c17.493 0 32-14.509 32-32.002s-14.507-32-32-32z" />
<glyph unicode="&#xe95b;" glyph-name="money" d="M844.8 704c-25.6 89.6-98.133 140.8-209.067 140.8h-375.467c-140.8-4.267-217.6-81.067-217.6-221.867v-221.867c0-132.267 68.267-183.467 123.733-204.8 4.267 0 8.533-4.267 17.067-4.267 17.067-59.733 55.467-102.4 110.933-123.733 25.6-8.533 59.733-17.067 98.133-17.067h375.467c140.8 0 217.6 81.067 217.6 217.6v221.867c0 110.933-51.2 183.467-140.8 213.333zM106.667 401.067v221.867c0 106.667 51.2 153.6 153.6 153.6h375.467c85.333 0 136.533-34.133 149.333-106.667 4.267-17.067 4.267-34.133 4.267-46.933v-221.867c0-106.667-51.2-153.6-153.6-153.6h-375.467c0 0 0 0 0 0-17.067 0-34.133 0-46.933 4.267-8.533 0-17.067 4.267-25.6 8.533-55.467 17.067-81.067 64-81.067 140.8zM921.6 273.067c0-106.667-51.2-153.6-153.6-153.6h-379.733c-29.867 0-51.2 4.267-72.533 12.8-29.867 8.533-46.933 25.6-64 51.2 4.267 0 4.267 0 8.533 0 0 0 0 0 0 0v0h375.467c140.8 0 217.6 81.067 217.6 217.6v221.867c0 4.267 0 4.267 0 8.533 42.667-25.6 64-68.267 64-136.533v-221.867zM448 366.933c81.067 0 145.067 64 145.067 145.067s-64 145.067-145.067 145.067-145.067-64-145.067-145.067 64-145.067 145.067-145.067zM448 593.067c42.667 0 81.067-34.133 81.067-81.067s-34.133-81.067-81.067-81.067-81.067 34.133-81.067 81.067 38.4 81.067 81.067 81.067zM234.667 418.133v187.733c0 17.067-12.8 34.133-34.133 34.133s-29.867-17.067-29.867-34.133v-187.733c0-17.067 12.8-34.133 34.133-34.133s29.867 17.067 29.867 34.133zM691.2 384c17.067 0 34.133 12.8 34.133 34.133v187.733c0 17.067-12.8 34.133-34.133 34.133s-34.133-12.8-34.133-34.133v-187.733c4.267-17.067 17.067-34.133 34.133-34.133z" />
<glyph unicode="&#xe95c;" glyph-name="money-fill" d="M817.92 676.692c-18.347 92.587-87.040 133.12-182.613 133.12h-374.615c-112.64 0-187.733-56.32-187.733-187.733v-219.732c0-94.72 38.827-150.187 102.827-174.080 9.387-3.413 19.627-6.4 30.293-8.107 17.067-3.84 35.413-5.547 54.613-5.547h375.042c112.64 0 187.733 56.32 187.733 187.733v219.732c0 20.053-1.707 37.973-5.547 54.613zM235.945 448c0-17.493-14.507-32-32-32s-32 14.507-32 32v127.999c0 17.493 14.507 32 32 32s32-14.507 32-32v-127.999zM448 399.36c-62.295 0-112.642 50.347-112.642 112.64s50.347 112.639 112.642 112.639c62.293 0 112.64-50.347 112.64-112.639s-50.347-112.64-112.64-112.64zM723.627 448c0-17.493-14.507-32-32-32s-32 14.507-32 32v127.999c0 17.493 14.507 32 32 32s32-14.507 32-32v-127.999zM951.458 494.080v-219.733c0-131.413-75.093-188.16-188.16-188.16h-374.615c-32 0-60.587 4.693-85.333 14.080-20.053 7.253-37.547 17.92-51.627 31.573-7.68 7.253-1.707 18.773 8.96 18.773h374.615c157.867 0 251.733 93.867 251.733 251.307v220.159c0 10.24 11.52 16.64 18.773 8.96 29.013-30.72 45.653-75.52 45.653-136.959z" />
<glyph unicode="&#xe95d;" glyph-name="pasargad" d="M0 960h1024v-1024h-1024v1024z" />
<glyph unicode="&#xe95e;" glyph-name="pause-fill" d="M510.729 874.667c-235.52 0-426.666-191.147-426.666-426.667s191.147-426.667 426.666-426.667c235.52 0 426.667 191.147 426.667 426.667s-190.72 426.667-426.667 426.667zM457.395 318.72c0-20.48-8.533-28.587-30.293-28.587h-55.466c-21.76 0-30.293 8.107-30.293 28.587v258.56c0 20.48 8.533 28.587 30.293 28.587h55.040c21.76 0 30.293-8.107 30.293-28.587v-258.56h0.427zM682.675 318.72c0-20.48-8.533-28.587-30.293-28.587h-55.040c-21.76 0-30.293 8.107-30.293 28.587v258.56c0 20.48 8.533 28.587 30.293 28.587h55.040c21.76 0 30.293-8.107 30.293-28.587v-258.56z" />
<glyph unicode="&#xe95f;" glyph-name="phone" d="M277.333-12.8c-34.133 0-64 4.267-93.867 17.067s-55.467 29.867-81.067 59.733c-12.8 17.067-25.6 34.133-34.133 51.2-8.533 21.333-12.8 38.4-12.8 59.733 0 17.067 4.267 29.867 8.533 46.933 8.533 17.067 17.067 29.867 34.133 42.667l140.8 98.133c12.8 8.533 25.6 17.067 38.4 21.333 29.867 12.8 59.733 8.533 85.333-4.267 8.533-4.267 21.333-17.067 34.133-29.867l29.867-29.867h4.267c4.267 4.267 21.333 12.8 46.933 34.133 21.333 17.067 38.4 34.133 64 59.733 17.067 21.333 38.4 42.667 59.733 64s29.867 38.4 34.133 46.933c0 0 0 0 0 4.267l-29.867 29.867c-8.533 17.067-17.067 29.867-25.6 42.667s-12.8 29.867-12.8 46.933c0 12.8 4.267 25.6 8.533 38.4s12.8 25.6 21.333 34.133l98.133 140.8c8.533 17.067 25.6 25.6 42.667 34.133 12.8 8.533 29.867 8.533 46.933 8.533 38.4 0 76.8-17.067 110.933-51.2 25.6-25.6 42.667-51.2 55.467-81.067s17.067-59.733 17.067-93.867c0-46.933-12.8-98.133-34.133-153.6-21.333-51.2-51.2-102.4-85.333-153.6-34.133-42.667-76.8-93.867-123.733-136.533-46.933-46.933-93.867-85.333-145.067-123.733s-102.4-68.267-153.6-89.6c-51.2-21.333-102.4-34.133-149.333-34.133zM311.467 328.533c-4.267 0-8.533 0-12.8-4.267-8.533-4.267-12.8-8.533-25.6-12.8l-140.8-98.133c-8.533-4.267-12.8-12.8-12.8-12.8-4.267-8.533-4.267-12.8-4.267-21.333 0-12.8 4.267-21.333 8.533-34.133s12.8-25.6 25.6-34.133c17.067-21.333 38.4-34.133 59.733-42.667 55.467-25.6 123.733-17.067 196.267 12.8 46.933 21.333 93.867 46.933 140.8 81.067s93.867 72.533 136.533 115.2c42.667 42.667 81.067 89.6 115.2 136.533s59.733 93.867 81.067 140.8c17.067 42.667 29.867 85.333 29.867 128 0 25.6-4.267 46.933-12.8 72.533-8.533 21.333-21.333 42.667-42.667 59.733-21.333 21.333-42.667 29.867-68.267 29.867-8.533 0-12.8 0-21.333-4.267s-12.8-8.533-17.067-12.8l-98.133-140.8c-8.533-8.533-12.8-17.067-12.8-25.6-4.267-4.267-4.267-8.533-4.267-12.8s0-8.533 4.267-12.8 8.533-17.067 17.067-25.6l34.133-34.133c8.533-8.533 17.067-25.6 17.067-38.4 0-4.267 0-12.8-4.267-17.067l-4.267-17.067c-8.533-17.067-25.6-38.4-42.667-59.733-21.333-25.6-42.667-46.933-64-68.267-25.6-25.6-46.933-46.933-68.267-64-21.333-21.333-42.667-34.133-59.733-42.667l-8.533-4.267c-25.6-8.533-46.933-4.267-64 12.8l-34.133 29.867c-12.8 8.533-21.333 12.8-25.6 17.067-8.533 4.267-12.8 4.267-17.067 4.267zM426.667 320v0 0z" />
<glyph unicode="&#xe960;" glyph-name="phone-fill" d="M630.174 243.2l-78.933 78.933c-17.067 17.067-16.64 44.373 0.427 61.013 2.133 2.133 4.373 4.267 6.613 6.4s4.48 4.267 6.613 6.4c22.187 22.613 42.667 45.227 61.867 67.413 18.773 22.187 32 40.533 39.68 54.613 0.465 1.387 1.050 2.773 1.694 4.292 0.546 1.289 1.135 2.675 1.719 4.241 0.853 3.413 1.28 6.4 1.28 9.813 0 6.827-2.133 12.373-6.827 17.067l-32.427 33.707c-10.24 10.24-18.347 20.48-23.893 30.293-5.973 9.813-8.96 20.053-8.96 30.293 0 8.107 2.133 17.067 5.973 26.027 3.84 9.387 9.387 19.2 17.067 29.867l98.987 139.52c7.68 11.093 17.493 18.773 28.587 23.893 10.667 5.12 22.613 7.68 34.56 7.68 31.573 0 61.44-13.227 88.747-40.107 22.613-21.333 38.827-45.227 49.067-71.253 10.24-25.6 15.36-53.333 15.36-82.347 0-44.373-10.24-90.88-30.293-139.52-20.48-48.213-48.64-96.853-83.627-145.493-35.413-48.64-75.093-95.147-119.040-139.52-2.347-2.347-4.693-4.587-7.040-6.827s-4.693-4.48-7.040-6.827c-17.067-16.213-43.52-16.213-60.16 0.427zM91.723 141.653c-4.267 11.947-6.4 24.32-6.4 36.267s2.56 22.613 6.827 33.28c4.693 10.667 12.373 19.627 23.467 27.307l141.227 100.267c10.667 7.253 20.48 12.8 29.867 16.64s17.92 5.547 26.027 5.547c10.667 0 20.48-2.987 30.293-8.96 9.813-5.12 20.053-13.227 30.72-23.893l32.427-32c4.693-4.693 10.24-7.253 17.493-7.253 3.842 0 7.255 0.427 10.669 1.707 1.37 0.589 2.65 1.173 3.84 1.719 1.404 0.644 2.684 1.233 3.84 1.694 8.96 4.693 19.627 11.52 31.573 20.48l139.52-139.52c-15.787-13.227-32.427-25.6-49.067-37.973-48.64-35.413-97.707-63.573-146.775-84.48s-95.573-31.147-139.093-31.147c-29.44 0-56.747 5.547-81.92 15.787-0.213 0-0.427 0.107-0.64 0.213s-0.427 0.213-0.64 0.213c-26.027 10.667-49.067 27.307-69.973 50.347-12.373 13.653-21.76 28.16-29.013 43.52-1.707 3.413-2.987 6.827-4.267 10.24z" />
<glyph unicode="&#xe961;" glyph-name="play" d="M337.067 51.2c-34.133 0-64 8.533-93.867 25.6-68.267 38.4-102.4 115.2-102.4 217.6v307.2c0 102.4 38.4 179.2 102.4 217.6 68.267 38.4 153.6 29.867 243.2-21.333l264.533-153.6c89.6-51.2 136.533-123.733 136.533-200.533s-51.2-149.333-136.533-200.533l-264.533-153.6c-55.467-21.333-106.667-38.4-149.333-38.4zM337.067 780.8c-21.333 0-42.667-4.267-64-17.067-46.933-25.6-72.533-85.333-72.533-162.133v-302.933c0-81.067 25.6-136.533 72.533-162.133s110.933-21.333 179.2 21.333l264.533 153.6c68.267 38.4 106.667 89.6 106.667 145.067s-38.4 102.4-106.667 145.067l-264.533 153.6c-42.667 12.8-81.067 25.6-115.2 25.6z" />
<glyph unicode="&#xe962;" glyph-name="play-circle-fill" d="M512 21.333c-235.642 0-426.667 191.027-426.667 426.667 0 235.642 191.025 426.667 426.667 426.667 235.639 0 426.667-191.025 426.667-426.667 0-235.639-191.027-426.667-426.667-426.667zM672 409.66c28.446 16.422 28.446 57.476 0 73.899l-224 129.328c-28.445 16.422-64-4.105-64-36.95v-258.654c0-32.845 35.555-53.372 64-36.949l224 129.327z" />
<glyph unicode="&#xe963;" glyph-name="play-fill" d="M170.667 448v151.892c0 188.587 133.547 265.813 296.96 171.52l263.68-151.893c163.413-94.292 163.413-248.746 0-343.039l-263.68-151.893c-163.413-94.293-296.96-17.067-296.96 171.52v151.893z" />
<glyph unicode="&#xe964;" glyph-name="qr-code" d="M477.867 746.667c8.533 0 17.067 0 25.6 0s8.533 0 8.533-4.267c0-17.067 0-34.133 0-46.933 0-4.267 0-4.267-4.267-4.267-8.533 0-17.067 0-29.867 0-17.067 0-29.867-12.8-34.133-29.867 0-38.4 0-72.533 0-110.933 0-12.8 4.267-21.333 17.067-25.6 4.267-4.267 12.8-4.267 17.067-4.267s12.8 0 17.067 4.267c4.267 4.267 8.533 8.533 12.8 12.8 4.267-4.267 4.267 4.267 4.267 8.533 0 21.333 0 46.933 0 68.267 0 4.267 0 8.533 8.533 4.267 8.533 0 17.067 0 21.333 0 25.6 0 38.4 12.8 38.4 38.4 0 59.733 0 115.2 0 174.933 0 17.067-8.533 38.4-25.6 42.667v0c-25.6 4.267-42.667-17.067-38.4-42.667 0-4.267 0-8.533 0-12.8s0-4.267-4.267-4.267c-8.533 0-17.067 0-29.867 0-17.067 0-34.133-17.067-34.133-34.133-4.267-17.067 12.8-34.133 29.867-34.133zM610.133 89.6c-8.533 0-17.067 0-25.6 0-4.267 0-4.267 0-4.267 4.267 0 8.533 0 17.067 0 25.6 0 21.333-12.8 34.133-34.133 34.133-8.533 0-17.067 0-25.6 0-4.267 0-4.267 0-4.267 4.267 0 8.533 0 17.067 0 29.867 0 17.067-12.8 34.133-34.133 34.133-17.067 0-34.133-12.8-34.133-34.133s0-42.667 0-68.267c0-17.067 12.8-34.133 34.133-34.133 8.533 0 17.067 0 25.6 0 4.267 0 8.533 0 8.533-8.533 0-4.267 0-12.8 0-17.067 0-21.333 8.533-34.133 25.6-38.4 4.267 0 8.533 0 12.8 0 21.333 0 38.4 0 59.733 0s34.133 17.067 34.133 38.4c-8.533 17.067-21.333 29.867-38.4 29.867zM930.133 76.8c-8.533 12.8-21.333 12.8-34.133 12.8-4.267 0-4.267 0-8.533 0-8.533 0-12.8 0-8.533 8.533 0 8.533 0 17.067 0 21.333 0 17.067-12.8 34.133-34.133 34.133-17.067 0-34.133-12.8-34.133-34.133 0-8.533 0-17.067 0-25.6 0-4.267 0-8.533-8.533-8.533-21.333 0-38.4 0-59.733 0-34.133 0-46.933-51.2-12.8-64 0 0 4.267 0 4.267 0 8.533 0 17.067 0 21.333 0 25.6 0 51.2 0 72.533 0s46.933 0 68.267 0c4.267 0 8.533 0 8.533 0 8.533 0 12.8 4.267 17.067 8.533s4.267 12.8 4.267 21.333c0 4.267 0 4.267 0 8.533 8.533 8.533 8.533 12.8 4.267 17.067zM866.133 290.133c-17.067 0-34.133 0-51.2 0-4.267 0-12.8 0-17.067-4.267-12.8-4.267-21.333-21.333-17.067-34.133 0-8.533 4.267-12.8 12.8-21.333 4.267-4.267 12.8-8.533 21.333-8.533 29.867 0 55.467 0 85.333 0 17.067 0 38.4 8.533 42.667 25.6 0 0 0 0 0 0 0 4.267 0 8.533 0 12.8 0 29.867 0 59.733 0 93.867 0 17.067-21.333 34.133-38.4 29.867s-29.867-17.067-29.867-34.133c0-17.067 0-34.133 0-51.2-4.267-8.533-4.267-8.533-8.533-8.533zM102.4 388.267c8.533-4.267 12.8-4.267 21.333-4.267 17.067 4.267 29.867 17.067 29.867 34.133 0 8.533 0 17.067 0 25.6 0 4.267 0 4.267 4.267 4.267 8.533 0 17.067 0 25.6 0 21.333 0 34.133 12.8 34.133 34.133s-12.8 34.133-34.133 34.133c-17.067 0-38.4 0-55.467 0s-29.867-4.267-38.4-21.333c0 0-4.267-4.267-4.267-4.267 0-4.267 0-12.8 0-17.067v-42.667c0-8.533 0-12.8 0-21.333 4.267-8.533 8.533-17.067 17.067-21.333zM891.733 512c-8.533-4.267-12.8-8.533-17.067-17.067s-4.267-17.067 0-25.6c4.267-8.533 8.533-12.8 17.067-17.067s17.067-4.267 25.6 0c8.533 4.267 21.333 12.8 21.333 25.6 0 0 0 0 0 0s0 4.267 0 4.267c0 0 0 0 0 0 0 25.6-25.6 42.667-46.933 29.867zM477.867 320c21.333 0 34.133 12.8 34.133 34.133 0 17.067 0 34.133 0 55.467 0 25.6-12.8 38.4-38.4 38.4-34.133 0-72.533 0-106.667 0-4.267 0-8.533 0-8.533 8.533s0 17.067 0 29.867c0 8.533-4.267 17.067-8.533 21.333s-12.8 8.533-21.333 8.533c-8.533 0-17.067-4.267-21.333-8.533s-8.533-12.8-8.533-21.333c0-8.533 0-12.8 0-21.333 0-12.8 0-12.8-12.8-12.8-21.333 0-34.133-12.8-34.133-34.133s12.8-34.133 38.4-34.133c25.6 0 51.2 0 76.8 0s55.467 0 81.067 0c8.533 0 8.533 0 8.533-8.533 0-4.267 0-12.8 0-17.067-12.8-21.333 4.267-38.4 21.333-38.4zM588.8 456.533c4.267-4.267 12.8-8.533 21.333-8.533 25.6 0 55.467 0 81.067 0 8.533 0 8.533-4.267 8.533-8.533 0-29.867 0-59.733 0-89.6 0-21.333 17.067-34.133 34.133-34.133s34.133 12.8 34.133 34.133c0 8.533 0 17.067 0 25.6 0 4.267 0 8.533 8.533 8.533s17.067 0 25.6 0c21.333 0 34.133 12.8 34.133 34.133s-12.8 29.867-34.133 29.867c-8.533 0-21.333 0-29.867 0-4.267 0-4.267 0-4.267 4.267 0 8.533 0 17.067 0 25.6 0 21.333-12.8 34.133-34.133 34.133s-38.4 0-59.733 0c-21.333 0-38.4 0-59.733 0-4.267 0-12.8 0-17.067-4.267-12.8-4.267-21.333-21.333-17.067-34.133 0-4.267 4.267-12.8 8.533-17.067zM610.133 384c-17.067 0-34.133-12.8-34.133-34.133 0-12.8 0-29.867 0-42.667 0-17.067 0-17.067-17.067-17.067-21.333 0-34.133-12.8-34.133-34.133 0-17.067 12.8-34.133 34.133-34.133 17.067 0 29.867 0 46.933 0 21.333 0 34.133 12.8 34.133 34.133 0 17.067 0 29.867 0 46.933s0 29.867 0 46.933c4.267 17.067-8.533 34.133-29.867 34.133zM733.867 132.267c4.267 4.267 8.533 12.8 8.533 21.333s0 17.067-8.533 21.333c-4.267 8.533-12.8 12.8-21.333 12.8s-17.067 0-29.867 0c-8.533 0-12.8-4.267-21.333-12.8-4.267-4.267-8.533-12.8-8.533-21.333s4.267-17.067 8.533-21.333c4.267-4.267 12.8-8.533 17.067-12.8 4.267 0 8.533 0 17.067 0 4.267 0 8.533 0 8.533 0 17.067 4.267 25.6 8.533 29.867 12.8zM213.333 699.733c4.267-4.267 8.533-8.533 17.067-8.533s12.8 0 21.333 0c4.267 4.267 8.533 8.533 12.8 17.067 4.267 4.267 4.267 12.8 4.267 17.067 0 8.533-4.267 17.067-8.533 21.333s-17.067 12.8-25.6 12.8c-8.533 0-12.8 0-17.067-4.267-4.267-8.533-8.533-12.8-12.8-17.067s-4.267-12.8 0-21.333c0-4.267 4.267-12.8 8.533-17.067zM187.733 576c34.133 0 68.267 0 98.133 0 25.6 0 51.2 12.8 68.267 29.867 21.333 17.067 29.867 42.667 29.867 68.267 0 34.133 0 68.267 0 102.4 0 38.4-21.333 68.267-55.467 89.6-17.067 8.533-34.133 8.533-51.2 8.533h-81.067c-12.8 0-25.6 0-38.4-4.267-38.4-8.533-68.267-42.667-72.533-81.067v-128c0 0 0-4.267 0-4.267 12.8-51.2 51.2-81.067 102.4-81.067zM153.6 772.267c0 21.333 12.8 34.133 34.133 34.133 17.067 0 34.133 0 46.933 0 17.067 0 29.867 0 46.933 0 21.333 0 34.133-12.8 34.133-34.133 0-29.867 0-64 0-93.867 0-21.333-12.8-34.133-34.133-34.133-29.867 0-64 0-93.867 0-21.333 0-34.133 12.8-34.133 34.133 0 29.867 0 64 0 93.867zM234.667 204.8c-8.533 0-12.8 0-17.067-4.267s-8.533-8.533-12.8-17.067-4.267-12.8 0-21.333c0-8.533 4.267-12.8 8.533-17.067s8.533-8.533 17.067-8.533c8.533 0 12.8 0 21.333 0s12.8 8.533 17.067 12.8c4.267 4.267 4.267 12.8 4.267 17.067 0 8.533-4.267 17.067-8.533 25.6-12.8 8.533-21.333 12.8-29.867 12.8zM285.867 320c-34.133 0-68.267 0-102.4 0-55.467 0-98.133-46.933-98.133-102.4 0-29.867 0-59.733 0-89.6 0-17.067 0-29.867 4.267-46.933 4.267-12.8 12.8-21.333 17.067-29.867 12.8-17.067 34.133-25.6 51.2-29.867 12.8-4.267 25.6 0 38.4 0s25.6 0 42.667 0c17.067 0 38.4 0 55.467 4.267 25.6 4.267 46.933 17.067 64 34.133s25.6 38.4 25.6 59.733c0 34.133 0 68.267 0 102.4 0 55.467-42.667 98.133-98.133 98.133zM320 123.733c0-21.333-12.8-34.133-34.133-34.133-17.067 0-34.133 0-46.933 0-17.067 0-29.867 0-46.933 0-21.333 0-34.133 12.8-34.133 34.133 0 29.867 0 64 0 93.867 0 21.333 12.8 34.133 34.133 34.133 29.867 0 64 0 93.867 0 21.333 0 34.133-12.8 34.133-34.133 0-29.867 0-59.733 0-93.867v0zM738.133 576c34.133 0 68.267 0 102.4 0 55.467 0 93.867 42.667 98.133 98.133 0 21.333 0 42.667 0 68.267 0 21.333 4.267 38.4 0 59.733-4.267 25.6-21.333 46.933-42.667 64-8.533 4.267-17.067 8.533-25.6 12.8-25.6-4.267-46.933-4.267-64-4.267-42.667 0-85.333 8.533-119.467-17.067-29.867-17.067-46.933-51.2-46.933-85.333s0-64 0-98.133c0-55.467 42.667-98.133 98.133-98.133zM704 772.267c0 21.333 12.8 34.133 34.133 34.133 34.133 0 64 0 98.133 0 21.333 0 34.133-12.8 34.133-34.133 0-34.133 0-64 0-98.133 0-21.333-12.8-34.133-34.133-34.133-17.067 0-34.133 0-46.933 0s-34.133 0-46.933 0c-21.333 0-34.133 12.8-34.133 34.133-4.267 34.133-4.267 68.267-4.267 98.133zM763.733 699.733c4.267-4.267 8.533-8.533 17.067-8.533s12.8 0 21.333 0c4.267 4.267 12.8 8.533 12.8 12.8 4.267 4.267 4.267 12.8 4.267 17.067 0 8.533-4.267 17.067-8.533 21.333s-12.8 8.533-25.6 8.533c-8.533 0-12.8 0-17.067-4.267s-8.533-8.533-12.8-17.067-4.267-12.8 0-21.333c0 4.267 4.267-4.267 8.533-8.533z" />
<glyph unicode="&#xe965;" glyph-name="rank" d="M853.333 268.8h-166.4v179.2c0 64-51.2 119.467-119.467 119.467h-115.2c-64 0-119.467-51.2-119.467-119.467v-51.2h-162.133c-64 0-119.467-51.2-119.467-119.467v-256c0-17.067 12.8-34.133 34.133-34.133h853.333c17.067 0 34.133 12.8 34.133 34.133v128c0 64-55.467 119.467-119.467 119.467zM456.533 499.2h115.2c29.867 0 51.2-25.6 51.2-51.2v-392.533h-221.867v307.2c0 0 0 0 0 0v85.333c0 29.867 25.6 51.2 55.467 51.2zM119.467 277.333c0 29.867 25.6 51.2 51.2 51.2h166.4v-277.333h-217.6v226.133zM904.533 55.467h-221.867v149.333h170.667c29.867 0 51.2-25.6 51.2-51.2v-98.133zM401.067 712.533l-8.533-34.133c-8.533-38.4 8.533-59.733 17.067-64 4.267-4.267 12.8-8.533 29.867-8.533 8.533 0 21.333 4.267 38.4 12.8l34.133 17.067 34.133-21.333c34.133-21.333 59.733-8.533 68.267-4.267 8.533 8.533 25.6 29.867 17.067 68.267l-8.533 34.133 29.867 29.867c17.067 17.067 25.6 38.4 17.067 59.733-4.267 21.333-25.6 34.133-46.933 38.4l-38.4 4.267-21.333 42.667c0 0 0 0 0 0-12.8 21.333-29.867 34.133-51.2 34.133 0 0 0 0 0 0-21.333 0-38.4-12.8-51.2-38.4l-21.333-42.667-34.133-4.267c-25.6-4.267-46.933-17.067-51.2-34.133-4.267-21.333 0-42.667 17.067-59.733l29.867-29.867zM456.533 780.8c17.067 4.267 34.133 17.067 42.667 29.867l12.8 34.133 17.067-29.867c8.533-17.067 25.6-29.867 42.667-29.867l25.6-8.533-21.333-21.333c-12.8-12.8-21.333-34.133-17.067-51.2l4.267-21.333-21.333 12.8c-17.067 12.8-42.667 12.8-59.733 0l-25.6-12.8 8.533 21.333c4.267 17.067-4.267 42.667-17.067 51.2l-21.333 21.333 29.867 4.267z" />
<glyph unicode="&#xe966;" glyph-name="rank-fill" d="M285.867 362.667h-115.2c-46.933 0-85.333-38.4-85.333-85.333v-213.333c0-21.333 21.333-42.667 42.667-42.667h157.867c21.333 0 42.667 21.333 42.667 42.667v256c0 21.333-21.333 42.667-42.667 42.667zM567.467 533.333h-115.2c-46.933 0-85.333-38.4-85.333-85.333v-384c0-21.333 21.333-42.667 42.667-42.667h200.533c21.333 0 42.667 21.333 42.667 42.667v384c0 46.933-38.4 85.333-85.333 85.333zM853.333 234.667h-115.2c-21.333 0-42.667-21.333-42.667-42.667v-128c0-21.333 21.333-42.667 42.667-42.667h157.867c21.333 0 42.667 21.333 42.667 42.667v85.333c0 46.933-38.4 85.333-85.333 85.333zM618.667 823.467l-42.667 8.533c0 0-4.267 4.267-8.533 4.267l-21.333 46.933c-17.067 34.133-55.467 34.133-72.533 0l-21.333-51.2c0 0-4.267-4.267-4.267-4.267l-42.667-8.533c-17.067 0-29.867-8.533-34.133-21.333s0-29.867 12.8-42.667l29.867-34.133c0 0 4.267-8.533 4.267-8.533l-8.533-38.4c-8.533-29.867 4.267-42.667 12.8-46.933s21.333-12.8 46.933 4.267l38.4 21.333c0 0 8.533 0 8.533 0l38.4-25.6c12.8-4.267 21.333-8.533 29.867-8.533s17.067 4.267 21.333 4.267c8.533 4.267 17.067 17.067 12.8 46.933l-8.533 38.4c0 0 0 8.533 4.267 8.533l25.6 38.4c12.8 12.8 17.067 29.867 12.8 42.667s-17.067 21.333-34.133 25.6z" />
<glyph unicode="&#xe967;" glyph-name="realse" d="M640 908.8h-256c-230.4 0-332.8-102.4-332.8-332.8v-256c0-230.4 98.133-332.8 332.8-332.8h256c230.4 0 332.8 98.133 332.8 332.8v256c0 230.4-102.4 332.8-332.8 332.8zM896 686.933h-204.8v153.6c119.467-8.533 179.2-55.467 204.8-153.6zM396.8 840.533h234.667v-153.6h-234.667v153.6zM332.8 840.533v-153.6h-204.8c25.6 98.133 85.333 145.067 204.8 153.6zM904.533 320c0-196.267-68.267-264.533-264.533-264.533h-256c-196.267 0-264.533 68.267-264.533 264.533v256c0 17.067 0 34.133 0 46.933h785.067c0-17.067 0-29.867 0-46.933v-256zM622.933 430.933l-89.6 51.2c-38.4 21.333-76.8 25.6-106.667 8.533-25.6-17.067-42.667-51.2-42.667-93.867v-102.4c0-42.667 17.067-76.8 46.933-93.867 12.8-8.533 25.6-12.8 42.667-12.8 21.333 0 42.667 4.267 64 17.067l89.6 51.2c38.4 21.333 59.733 55.467 59.733 85.333s-25.6 68.267-64 89.6zM593.067 311.467l-89.6-51.2c-17.067-8.533-29.867-12.8-42.667-8.533-8.533 4.267-12.8 21.333-12.8 38.4v102.4c0 21.333 4.267 34.133 12.8 38.4 4.267 0 8.533 4.267 12.8 4.267 8.533 0 17.067-4.267 29.867-8.533l89.6-51.2c17.067-8.533 25.6-21.333 25.6-34.133s-8.533-21.333-25.6-29.867z" />
<glyph unicode="&#xe968;" glyph-name="realse-fill" d="M396.8 874.667h234.667v-187.733h-234.667v187.733zM691.2 874.667v-187.733h238.933c-17.067 119.467-106.667 187.733-238.933 187.733zM85.333 622.933v-354.133c0-153.6 93.867-247.467 247.467-247.467h358.4c153.6 0 247.467 93.867 247.467 247.467v354.133h-853.333zM614.4 268.8l-89.6-51.2c-17.067-8.533-38.4-17.067-55.467-17.067-12.8 0-25.6 4.267-34.133 8.533-25.6 12.8-38.4 42.667-38.4 81.067v102.4c0 38.4 12.8 68.267 38.4 81.067s55.467 12.8 89.6-8.533l89.6-51.2c34.133-17.067 51.2-46.933 51.2-72.533s-17.067-51.2-51.2-72.533zM332.8 874.667c-132.267 0-221.867-68.267-243.2-187.733h238.933v187.733z" />
<glyph unicode="&#xe969;" glyph-name="replay" d="M896 140.8c-19.2 0-32 12.8-44.8 25.6-57.6 115.2-172.8 179.2-332.8 185.6v-83.2c0-38.4-19.2-70.4-51.2-83.2s-70.4-6.4-96 12.8l-256 230.4c-25.6 25.6-38.4 51.2-38.4 76.8s12.8 51.2 32 70.4l256 217.6c25.6 25.6 64 25.6 96 12.8s51.2-44.8 51.2-83.2v-57.6c249.6-19.2 428.8-192 428.8-428.8v-51.2c0-19.2-12.8-38.4-38.4-44.8 0 0 0 0-6.4 0zM179.2 505.6l243.2-224v121.6c0 25.6 19.2 44.8 44.8 44.8 153.6 0 275.2-38.4 364.8-108.8-51.2 153.6-211.2 230.4-364.8 230.4-25.6 0-51.2 19.2-51.2 51.2v89.6l-236.8-204.8zM172.8 499.2v0 0 0z" />
<glyph unicode="&#xe96a;" glyph-name="replay-1" d="M896 153.6c-12.8 0-21.333 8.533-29.867 17.067-76.8 149.333-234.667 192-366.933 196.267v-98.133c0-29.867-17.067-55.467-42.667-68.267s-59.733-8.533-81.067 12.8l-256 234.667c-17.067 12.8-25.6 34.133-25.6 55.467s8.533 42.667 25.6 55.467l256 217.6c21.333 17.067 51.2 21.333 81.067 12.8 25.6-12.8 42.667-38.4 42.667-68.267v-72.533c247.467-12.8 426.667-183.467 426.667-413.867v-46.933c0-12.8-8.533-25.6-25.6-29.867 0-4.267 0-4.267-4.267-4.267zM426.667 733.867c0 0-4.267 0-8.533-4.267l-256-217.6c-4.267-4.267-4.267-4.267-4.267-8.533s0-4.267 4.267-8.533l256-234.667c4.267-4.267 8.533-4.267 12.8 0 4.267 0 4.267 4.267 4.267 8.533v132.267c0 17.067 12.8 34.133 34.133 34.133 170.667 0 302.933-46.933 388.267-140.8-29.867 174.933-179.2 290.133-388.267 290.133-17.067 0-34.133 12.8-34.133 34.133v102.4c0 4.267-4.267 8.533-4.267 8.533 0 4.267-4.267 4.267-4.267 4.267z" />
<glyph unicode="&#xe96b;" glyph-name="replay-2" d="M896 140.8c-19.2 0-32 12.8-44.8 25.6-57.6 115.2-172.8 179.2-332.8 185.6v-83.2c0-38.4-19.2-70.4-51.2-83.2s-70.4-6.4-96 12.8l-256 230.4c-25.6 25.6-38.4 51.2-38.4 76.8s12.8 51.2 32 70.4l256 217.6c25.6 25.6 64 25.6 96 12.8s51.2-44.8 51.2-83.2v-57.6c249.6-19.2 428.8-192 428.8-428.8v-51.2c0-19.2-12.8-38.4-38.4-44.8 0 0 0 0-6.4 0zM179.2 505.6l243.2-224v121.6c0 25.6 19.2 44.8 44.8 44.8 153.6 0 275.2-38.4 364.8-108.8-51.2 153.6-211.2 230.4-364.8 230.4-25.6 0-51.2 19.2-51.2 51.2v89.6l-236.8-204.8zM172.8 499.2v0 0 0z" />
<glyph unicode="&#xe96c;" glyph-name="righ-2-3" d="M358.4 51.2c-25.6 0-51.2 12.8-64 25.6-38.4 38.4-38.4 102.4 0 140.8l230.4 230.4-230.4 230.4c-38.4 38.4-38.4 102.4 0 140.8s102.4 38.4 140.8 0l294.4-294.4c12.8-25.6 25.6-51.2 25.6-76.8s-12.8-51.2-25.6-64l-294.4-307.2c-25.6-12.8-51.2-25.6-76.8-25.6z" />
<glyph unicode="&#xe96d;" glyph-name="right-1" d="M896 469.333l-256 260.267c-12.8 12.8-34.133 12.8-46.933 0s-12.8-34.133 0-46.933l204.8-204.8h-648.533c-17.067 0-34.133-12.8-34.133-34.133s12.8-34.133 34.133-34.133h648.533l-204.8-204.8c-12.8-12.8-12.8-34.133 0-46.933 4.267-4.267 12.8-8.533 21.333-8.533s17.067 4.267 21.333 8.533l260.267 260.267c12.8 21.333 12.8 38.4 0 51.2z" />
<glyph unicode="&#xe96e;" glyph-name="right-2" d="M904.533 477.867l-260.267 260.267c-17.067 17.067-42.667 17.067-59.733 0s-17.067-42.667 0-59.733l187.733-187.733h-622.933c-25.6 0-42.667-17.067-42.667-42.667s17.067-42.667 42.667-42.667h622.933l-187.733-187.733c-17.067-17.067-17.067-42.667 0-59.733 8.533-8.533 21.333-12.8 29.867-12.8s21.333 4.267 29.867 12.8l260.267 260.267c17.067 17.067 17.067 42.667 0 59.733z" />
<glyph unicode="&#xe96f;" glyph-name="right-2-1" d="M362.667 115.2c-8.533 0-17.067 4.267-21.333 8.533-12.8 12.8-12.8 34.133 0 46.933l277.333 277.333-277.333 277.333c-12.8 12.8-12.8 29.867 0 42.667s34.133 12.8 46.933 0l298.667-298.667c12.8-12.8 12.8-34.133 0-46.933l-298.667-298.667c-8.533-4.267-17.067-8.533-25.6-8.533z" />
<glyph unicode="&#xe970;" glyph-name="right-2-2" d="M364.8 102.4c-12.8 0-25.6 6.4-32 12.8-19.2 19.2-19.2 51.2 0 70.4l262.4 262.4-268.8 262.4c-19.2 19.2-19.2 51.2 0 70.4s51.2 19.2 70.4 0l300.8-300.8c19.2-19.2 19.2-51.2 0-70.4l-300.8-300.8c-6.4 0-19.2-6.4-32-6.4z" />
<glyph unicode="&#xe971;" glyph-name="right-3" d="M908.8 480l-256 256c-19.2 19.2-51.2 19.2-70.4 0s-19.2-51.2 0-70.4l179.2-179.2h-614.4c-25.6 12.8-44.8-12.8-44.8-38.4s19.2-51.2 51.2-51.2h608l-179.2-179.2c-19.2-19.2-19.2-51.2 0-70.4 6.4-6.4 19.2-12.8 32-12.8s25.6 6.4 32 12.8l256 256c6.4 6.4 12.8 19.2 12.8 32s0 38.4-6.4 44.8z" />
<glyph unicode="&#xe972;" glyph-name="right-3-1" d="M925.867 473.6c0 4.267-4.267 8.533-8.533 8.533l-157.867 157.867c-12.8 12.8-34.133 12.8-46.933 0s-12.8-34.133 0-46.933l102.4-102.4h-686.933c-17.067 0-34.133-12.8-34.133-34.133s12.8-34.133 34.133-34.133h691.2l-102.4-102.4c-12.8-12.8-12.8-34.133 0-46.933 4.267-4.267 12.8-8.533 21.333-8.533s17.067 4.267 21.333 8.533l157.867 157.867c4.267 4.267 4.267 8.533 8.533 8.533 4.267 17.067 4.267 25.6 0 34.133z" />
<glyph unicode="&#xe973;" glyph-name="right-3-2" d="M947.2 460.8c0 6.4 0 12.8-6.4 19.2 0 6.4-6.4 12.8-12.8 12.8l-160 160c-19.2 19.2-51.2 19.2-70.4 0s-19.2-51.2 0-70.4l76.8-76.8h-646.4c-25.6 0-51.2-19.2-51.2-51.2s25.6-44.8 51.2-44.8h652.8l-76.8-76.8c-19.2-19.2-19.2-51.2 0-70.4 6.4-6.4 19.2-12.8 32-12.8s25.6 6.4 32 12.8l160 160c6.4 6.4 6.4 12.8 12.8 12.8 0 12.8 6.4 19.2 6.4 25.6z" />
<glyph unicode="&#xe974;" glyph-name="right-4" d="M921.6 492.8l-256 256c-25.6 25.6-64 25.6-89.6 0s-25.6-64 0-89.6l147.2-147.2h-576c-38.4 0-64-25.6-64-64s25.6-64 64-64h569.6l-147.2-147.2c-25.6-25.6-25.6-64 0-89.6 12.8-12.8 32-19.2 44.8-19.2s32 6.4 44.8 19.2l256 256c12.8 12.8 19.2 25.6 19.2 44.8s0 32-12.8 44.8z" />
<glyph unicode="&#xe975;" glyph-name="rotate" d="M452.267 93.867c-42.667 8.533-81.067 21.333-115.2 42.667-17.067 8.533-34.133 4.267-42.667-12.8s-4.267-34.133 12.8-42.667c42.667-25.6 89.6-42.667 136.533-51.2 0 0 4.267 0 4.267 0 17.067 0 29.867 12.8 29.867 25.6 0 21.333-8.533 38.4-25.6 38.4zM179.2 324.267c-4.267 17.067-25.6 25.6-42.667 17.067-17.067-4.267-25.6-25.6-17.067-42.667 17.067-46.933 42.667-89.6 72.533-128 4.267-8.533 17.067-12.8 25.6-12.8s12.8 4.267 21.333 8.533c12.8 12.8 17.067 29.867 4.267 46.933-29.867 34.133-51.2 72.533-64 110.933zM691.2 136.533c-34.133-21.333-76.8-34.133-115.2-42.667-17.067-4.267-29.867-21.333-25.6-38.4s17.067-25.6 29.867-25.6c0 0 4.267 0 4.267 0 46.933 8.533 93.867 25.6 136.533 51.2 17.067 8.533 21.333 29.867 12.8 42.667-8.533 17.067-29.867 21.333-42.667 12.8zM887.467 341.333c-17.067 4.267-34.133-4.267-42.667-17.067-12.8-38.4-34.133-76.8-59.733-106.667-12.8-12.8-8.533-34.133 4.267-46.933 4.267-4.267 12.8-8.533 21.333-8.533s17.067 4.267 25.6 12.8c29.867 38.4 55.467 81.067 72.533 128 4.267 17.067-4.267 34.133-21.333 38.4zM512 866.133c-145.067 0-277.333-76.8-349.867-196.267v98.133c0 17.067-12.8 34.133-34.133 34.133s-34.133-17.067-34.133-34.133v-162.133c0-17.067 17.067-29.867 34.133-29.867h162.133c17.067 0 34.133 12.8 34.133 34.133s-17.067 29.867-34.133 29.867h-72.533c64 98.133 174.933 157.867 294.4 157.867 192 0 349.867-157.867 349.867-349.867 0-17.067 12.8-34.133 34.133-34.133s34.133 12.8 34.133 34.133c0 230.4-187.733 418.133-418.133 418.133z" />
<glyph unicode="&#xe976;" glyph-name="saman" d="M0 960h1024v-1024h-1024v1024z" />
<glyph unicode="&#xe977;" glyph-name="search" d="M490.667 908.8c-243.2 0-439.467-196.267-439.467-439.467s196.267-435.2 435.2-435.2c243.2 0 435.2 196.267 435.2 435.2 8.533 243.2-187.733 439.467-430.933 439.467zM490.667 98.133c-204.8 0-375.467 166.4-375.467 375.467 0 204.8 166.4 375.467 375.467 375.467 204.8 0 375.467-166.4 375.467-375.467-4.267-209.067-170.667-375.467-375.467-375.467zM960 42.667l-85.333 85.333c-12.8 12.8-34.133 12.8-46.933 0s-12.8-34.133 0-46.933l85.333-85.333c4.267-4.267 12.8-8.533 21.333-8.533s17.067 4.267 21.333 8.533c17.067 17.067 17.067 34.133 4.267 46.933z" />
<glyph unicode="&#xe978;" glyph-name="send-fill" d="M802.133 418.133c-4.267 0-4.267 0-8.533 0h-234.667c-17.067 0-34.133 12.8-34.133 34.133 0 17.067 12.8 34.133 34.133 34.133h234.667c4.267 0 4.267 0 8.533 0l72.533 260.267c4.267 21.333 0 38.4-17.067 51.2s-38.4 17.067-55.467 4.267l-622.933-307.2c-17.067-8.533-29.867-25.6-29.867-46.933s12.8-38.4 29.867-46.933l622.933-311.467c17.067-8.533 38.4-8.533 55.467 4.267s21.333 34.133 17.067 51.2l-72.533 273.067z" />
<glyph unicode="&#xe979;" glyph-name="smile" d="M806.4 742.4c-162.133 162.133-426.667 162.133-588.8 0-81.067-81.067-123.733-187.733-123.733-298.667 0-115.2 46.933-217.6 132.267-298.667 76.8-72.533 183.467-110.933 285.867-110.933s209.067 38.4 285.867 110.933c81.067 76.8 128 183.467 132.267 298.667 0 110.933-42.667 217.6-123.733 298.667zM755.2 192c-132.267-128-349.867-128-482.133 0-68.267 64-110.933 153.6-110.933 251.733 0 93.867 34.133 187.733 102.4 251.733 68.267 68.267 157.867 102.4 247.467 102.4s179.2-34.133 247.467-102.4c68.267-68.267 102.4-157.867 102.4-251.733 0-98.133-38.4-187.733-106.667-251.733zM426.667 499.2c17.067 0 34.133 12.8 34.133 34.133v85.333c0 17.067-12.8 34.133-34.133 34.133s-34.133-17.067-34.133-34.133v-85.333c0-17.067 17.067-34.133 34.133-34.133zM597.333 499.2c17.067 0 34.133 12.8 34.133 34.133v85.333c0 17.067-12.8 34.133-34.133 34.133s-34.133-17.067-34.133-34.133v-85.333c0-17.067 17.067-34.133 34.133-34.133zM635.733 315.733c-68.267-64-183.467-64-251.733 0-12.8 12.8-34.133 12.8-46.933 0s-12.8-34.133 0-46.933c93.867-89.6 243.2-89.6 337.067 0 12.8 12.8 12.8 34.133 0 46.933-4.267 12.8-25.6 12.8-38.4 0z" />
<glyph unicode="&#xe97a;" glyph-name="sort" d="M896 695.467h-768c-17.067 0-34.133-17.067-34.133-34.133s17.067-34.133 34.133-34.133h768c17.067 0 34.133 12.8 34.133 34.133s-17.067 34.133-34.133 34.133zM768 482.133h-512c-17.067 0-34.133-12.8-34.133-34.133s12.8-34.133 34.133-34.133h512c17.067 0 34.133 12.8 34.133 34.133s-17.067 34.133-34.133 34.133zM597.333 268.8h-170.667c-17.067 0-34.133-12.8-34.133-34.133s12.8-34.133 34.133-34.133h170.667c17.067 0 34.133 12.8 34.133 34.133s-17.067 34.133-34.133 34.133z" />
<glyph unicode="&#xe97b;" glyph-name="star-2" d="M934.4 416c44.8 44.8 57.6 89.6 44.8 134.4s-57.6 76.8-115.2 83.2l-134.4 25.6c-6.4 0-19.2 12.8-25.6 19.2l-76.8 153.6c-38.4 76.8-89.6 89.6-115.2 89.6 0 0 0 0 0 0-25.6 0-76.8-12.8-115.2-89.6l-76.8-153.6c-6.4-6.4-19.2-12.8-25.6-12.8l-134.4-25.6c-64-12.8-102.4-38.4-115.2-83.2-19.2-44.8 0-96 44.8-140.8l102.4-102.4c6.4-6.4 12.8-25.6 6.4-32l-32-128c-19.2-96 12.8-134.4 38.4-153.6s76.8-38.4 160 12.8l128 76.8c6.4 6.4 25.6 6.4 38.4 0l128-76.8c38.4-25.6 70.4-32 96-32 32 0 51.2 12.8 64 19.2 25.6 19.2 57.6 57.6 38.4 153.6l-32 128c0 6.4 0 25.6 6.4 32l102.4 102.4zM761.6 377.6c-32-32-44.8-83.2-32-121.6l32-128c6.4-38.4 0-51.2 0-51.2s-19.2 0-51.2 19.2l-128 76.8c-19.2 12.8-44.8 19.2-64 19.2-25.6 0-44.8-6.4-64-19.2l-128-76.8c-32-19.2-51.2-19.2-51.2-19.2s-6.4 19.2 0 51.2l19.2 128c12.8 44.8-6.4 96-32 128l-108.8 102.4c-19.2 19.2-19.2 32-19.2 38.4s12.8 12.8 38.4 19.2l134.4 25.6c38.4 6.4 83.2 32 96 70.4l76.8 147.2c12.8 25.6 25.6 38.4 32 38.4 0 0 0 0 0 0 6.4 0 19.2-6.4 32-32 0 0 0 0 0 0l76.8-153.6c19.2-32 57.6-64 96-70.4l134.4-25.6c25.6-6.4 38.4-12.8 38.4-19.2s0-19.2-19.2-38.4l-108.8-108.8z" />
<glyph unicode="&#xe97c;" glyph-name="star-4" d="M925.867 430.933c51.2 51.2 46.933 98.133 42.667 119.467-8.533 21.333-29.867 59.733-102.4 72.533l-140.8 25.6c-12.8 4.267-29.867 17.067-38.4 25.6l-76.8 149.333c-34.133 68.267-76.8 76.8-102.4 76.8 0 0 0 0 0 0-25.6 0-68.267-8.533-102.4-76.8l-72.533-149.333c-4.267-12.8-21.333-25.6-34.133-25.6l-136.533-25.6c-72.533-12.8-98.133-51.2-106.667-72.533s-12.8-68.267 42.667-119.467l106.667-106.667c8.533-8.533 17.067-34.133 12.8-46.933l-29.867-132.267c-21.333-85.333 8.533-123.733 29.867-136.533s64-29.867 140.8 12.8l128 76.8c12.8 8.533 38.4 8.533 51.2 0l128-76.8c38.4-21.333 64-29.867 89.6-29.867s42.667 8.533 51.2 17.067c21.333 12.8 51.2 51.2 29.867 136.533l-29.867 132.267c-4.267 12.8 4.267 38.4 12.8 46.933l106.667 106.667zM742.4 264.533l29.867-132.267c8.533-42.667 4.267-64-4.267-72.533s-34.133-4.267-68.267 17.067l-128 76.8c-17.067 8.533-38.4 12.8-59.733 12.8s-42.667-4.267-59.733-12.8l-128-76.8c-38.4-21.333-59.733-21.333-68.267-17.067-8.533 8.533-17.067 29.867-4.267 72.533l29.867 132.267c8.533 34.133-4.267 81.067-29.867 106.667l-106.667 106.667c-21.333 21.333-29.867 42.667-25.6 55.467s21.333 21.333 51.2 29.867l136.533 21.333c34.133 4.267 68.267 34.133 85.333 64l76.8 149.333c12.8 25.6 29.867 42.667 46.933 42.667 0 0 0 0 0 0 12.8 0 29.867-17.067 46.933-42.667 0 0 0 0 0 0l76.8-149.333c12.8-29.867 51.2-55.467 85.333-64l128-21.333c29.867-4.267 46.933-17.067 55.467-29.867 4.267-12.8-4.267-34.133-25.6-55.467l-106.667-106.667c-29.867-25.6-42.667-72.533-34.133-106.667z" />
<glyph unicode="&#xe97d;" d="M512-64c282.769 0 512 229.231 512 512s-229.231 512-512 512c-282.77 0-512-229.23-512-512s229.23-512 512-512z" />
<glyph unicode="&#xe97e;" d="M231.766 453.406c149.259 65.028 248.789 107.9 298.585 128.613 142.191 59.141 171.733 69.414 190.993 69.754 4.237 0.074 13.705-0.975 19.84-5.953 5.18-4.203 6.605-9.881 7.287-13.865s1.532-13.063 0.853-20.156c-7.706-80.961-41.045-277.424-58.005-368.104-7.177-38.366-21.308-51.23-34.991-52.489-29.734-2.739-52.309 19.648-81.109 38.524-45.060 29.542-70.519 47.927-114.261 76.753-50.549 33.314-17.779 51.622 11.029 81.545 7.539 7.829 138.543 126.985 141.077 137.796 0.32 1.353 0.614 6.391-2.381 9.052s-7.411 1.751-10.603 1.027c-4.518-1.026-76.506-48.607-215.963-142.743-20.433-14.033-38.941-20.868-55.524-20.51-18.281 0.393-53.446 10.334-79.588 18.833-32.064 10.423-57.548 15.932-55.329 33.634 1.156 9.22 13.852 18.65 38.089 28.288z" />
<glyph unicode="&#xe97f;" glyph-name="telegram-fill" d="M512 960c-281.6 0-512-230.4-512-512s230.4-512 512-512c281.6 0 512 230.4 512 512s-230.4 512-512 512zM750.933 610.133c-8.533-81.067-42.667-277.333-59.733-366.933-8.533-38.4-21.333-51.2-34.133-51.2-25.6-4.267-42.667 12.8-64 25.6-4.267 4.267-12.8 8.533-17.067 12.8-25.6 17.067-42.667 29.867-59.733 38.4-17.067 12.8-34.133 21.333-55.467 38.4-42.667 29.867-25.6 46.933 0 68.267 4.267 4.267 8.533 8.533 12.8 12.8 0 0 8.533 8.533 21.333 21.333 38.4 38.4 115.2 106.667 119.467 115.2 0 0 0 4.267-4.267 8.533s-8.533 0-8.533 0c-4.267 0-76.8-46.933-217.6-140.8-21.333-12.8-38.4-21.333-55.467-21.333s-55.467 8.533-81.067 17.067c-4.267 0-8.533 4.267-12.8 4.267-25.6 8.533-46.933 12.8-42.667 29.867 0 8.533 12.8 17.067 38.4 29.867 149.333 64 247.467 106.667 298.667 128 140.8 59.733 170.667 68.267 192 68.267 4.267 0 12.8 0 21.333-4.267 4.267-4.267 8.533-8.533 8.533-12.8s0-12.8 0-21.333z" />
<glyph unicode="&#xe980;" glyph-name="tick-1" d="M789.333 640c-12.8 12.8-34.133 12.8-46.933 0l-315.733-315.733-149.333 149.333c-12.8 12.8-34.133 12.8-46.933 0s-12.8-34.133 0-46.933l170.667-170.667c4.267-4.267 12.8-8.533 21.333-8.533 0 0 0 0 0 0 8.533 0 17.067 4.267 21.333 8.533l341.333 341.333c17.067 12.8 17.067 29.867 4.267 42.667z" />
<glyph unicode="&#xe981;" glyph-name="tick-2" d="M800 652.8c-19.2 19.2-51.2 19.2-70.4 0l-300.8-307.2-140.8 134.4c-19.2 19.2-51.2 19.2-70.4 0s-19.2-51.2 0-70.4l172.8-172.8c6.4-6.4 19.2-12.8 32-12.8 0 0 0 0 0 0 12.8 0 25.6 6.4 32 12.8l339.2 339.2c25.6 25.6 25.6 57.6 6.4 76.8z" />
<glyph unicode="&#xe982;" d="M512 21.333c235.639 0 426.667 191.027 426.667 426.667 0 235.642-191.027 426.667-426.667 426.667-235.642 0-426.667-191.025-426.667-426.667 0-235.639 191.025-426.667 426.667-426.667z" />
<glyph unicode="&#xe983;" d="M451.409 295.253c-8.533 0-16.64 3.413-22.613 9.387l-120.745 120.747c-12.373 12.373-12.373 32.853 0 45.227s32.853 12.373 45.227 0l98.132-98.133 219.307 219.308c12.373 12.373 32.853 12.373 45.227 0s12.373-32.853 0-45.227l-241.92-241.921c-5.973-5.973-14.080-9.387-22.613-9.387z" />
<glyph unicode="&#xe984;" glyph-name="translate" d="M691.2 874.667h-358.4c-153.6 0-247.467-93.867-247.467-247.467v-358.4c0-153.6 93.867-247.467 247.467-247.467h358.4c153.6 0 247.467 93.867 247.467 247.467v358.4c0 153.6-93.867 247.467-247.467 247.467zM725.333 213.333c-72.533 0-140.8 29.867-196.267 89.6-59.733-55.467-140.8-89.6-230.4-89.6-17.067 0-34.133 12.8-34.133 34.133 0 17.067 17.067 29.867 34.133 29.867 149.333 0 268.8 119.467 285.867 268.8h-285.867c-17.067 0-29.867 12.8-29.867 29.867s12.8 29.867 34.133 29.867h179.2v42.667c0 17.067 12.8 34.133 34.133 34.133s34.133-12.8 34.133-34.133v-38.4h72.533c0 0 0 0 4.267 0s0 0 4.267 0h93.867c17.067 0 34.133-12.8 34.133-34.133 0-17.067-12.8-34.133-34.133-34.133h-76.8c-8.533-72.533-34.133-140.8-76.8-196.267 42.667-46.933 93.867-72.533 153.6-72.533 17.067 0 34.133-12.8 34.133-34.133 0-8.533-17.067-25.6-34.133-25.6z" />
<glyph unicode="&#xe985;" glyph-name="trash" d="M810.667 695.467h-597.333c-17.067 0-34.133-17.067-34.133-34.133s17.067-34.133 34.133-34.133h8.533v-435.2c0-64 51.2-119.467 119.467-119.467h341.333c64 0 119.467 51.2 119.467 119.467v435.2h8.533c17.067 0 34.133 12.8 34.133 34.133s-17.067 34.133-34.133 34.133zM733.867 192c0-29.867-25.6-51.2-51.2-51.2h-341.333c-29.867 0-51.2 25.6-51.2 51.2v435.2h448v-435.2zM384 768h256c17.067 0 34.133 12.8 34.133 34.133s-17.067 29.867-34.133 29.867h-256c-17.067 0-34.133-12.8-34.133-34.133s17.067-29.867 34.133-29.867z" />
</font>
</defs>
</svg>
